<svg width="574" height="221" viewBox="0 0 574 221" fill="none" xmlns="http://www.w3.org/2000/svg">
<mask id="mask0_698_5961" style="mask-type:luminance" maskUnits="userSpaceOnUse" x="182" y="0" width="210" height="211">
<path d="M182.5 0.5H391.5V210.5H182.5V0.5Z" fill="white" stroke="white"/>
</mask>
<g mask="url(#mask0_698_5961)">
<g opacity="0.3" filter="url(#filter0_f_698_5961)">
<path d="M351.5 105.195C351.5 140.818 322.622 169.695 287 169.695C251.378 169.695 222.5 140.818 222.5 105.195C222.5 69.5729 251.378 40.6953 287 40.6953C322.622 40.6953 351.5 69.5729 351.5 105.195Z" fill="url(#paint0_radial_698_5961)" stroke="url(#paint1_radial_698_5961)"/>
</g>
<mask id="path-3-inside-1_698_5961" fill="white">
<path fill-rule="evenodd" clip-rule="evenodd" d="M233.55 104.695H233.5V103.695H233.55C233.683 103.695 233.81 103.748 233.904 103.842C233.997 103.936 234.05 104.063 234.05 104.195C234.05 104.328 233.997 104.455 233.904 104.549C233.81 104.643 233.683 104.695 233.55 104.695ZM237.029 104.195C237.029 104.063 237.082 103.936 237.175 103.842C237.269 103.748 237.396 103.695 237.529 103.695H237.628C237.761 103.695 237.888 103.748 237.982 103.842C238.075 103.936 238.128 104.063 238.128 104.195C238.128 104.328 238.075 104.455 237.982 104.549C237.888 104.643 237.761 104.695 237.628 104.695H237.529C237.396 104.695 237.269 104.643 237.175 104.549C237.082 104.455 237.029 104.328 237.029 104.195ZM241.107 104.195C241.107 104.063 241.16 103.936 241.253 103.842C241.347 103.748 241.474 103.695 241.607 103.695H241.706C241.839 103.695 241.966 103.748 242.06 103.842C242.153 103.936 242.206 104.063 242.206 104.195C242.206 104.328 242.153 104.455 242.06 104.549C241.966 104.643 241.839 104.695 241.706 104.695H241.607C241.474 104.695 241.347 104.643 241.253 104.549C241.16 104.455 241.107 104.328 241.107 104.195ZM245.185 104.195C245.185 104.063 245.238 103.936 245.331 103.842C245.425 103.748 245.552 103.695 245.685 103.695H245.785C245.918 103.695 246.045 103.748 246.139 103.842C246.232 103.936 246.285 104.063 246.285 104.195C246.285 104.328 246.232 104.455 246.139 104.549C246.045 104.643 245.918 104.695 245.785 104.695H245.685C245.552 104.695 245.425 104.643 245.331 104.549C245.238 104.455 245.185 104.328 245.185 104.195ZM249.264 104.195C249.264 104.063 249.317 103.936 249.41 103.842C249.504 103.748 249.631 103.695 249.764 103.695H249.863C249.996 103.695 250.123 103.748 250.217 103.842C250.31 103.936 250.363 104.063 250.363 104.195C250.363 104.328 250.31 104.455 250.217 104.549C250.123 104.643 249.996 104.695 249.863 104.695H249.764C249.631 104.695 249.504 104.643 249.41 104.549C249.317 104.455 249.264 104.328 249.264 104.195ZM253.342 104.195C253.342 104.063 253.395 103.936 253.488 103.842C253.582 103.748 253.709 103.695 253.842 103.695H253.941C254.074 103.695 254.201 103.748 254.295 103.842C254.388 103.936 254.441 104.063 254.441 104.195C254.441 104.328 254.388 104.455 254.295 104.549C254.201 104.643 254.074 104.695 253.941 104.695H253.842C253.709 104.695 253.582 104.643 253.488 104.549C253.395 104.455 253.342 104.328 253.342 104.195ZM257.42 104.195C257.42 104.063 257.473 103.936 257.566 103.842C257.66 103.748 257.787 103.695 257.92 103.695H258.018C258.151 103.696 258.278 103.749 258.371 103.842C258.465 103.936 258.517 104.064 258.517 104.196C258.517 104.329 258.464 104.456 258.37 104.55C258.276 104.643 258.149 104.696 258.016 104.695H257.92C257.787 104.695 257.66 104.643 257.566 104.549C257.473 104.455 257.42 104.328 257.42 104.195ZM315.655 104.695H315.608C315.475 104.696 315.348 104.643 315.254 104.55C315.16 104.456 315.107 104.329 315.107 104.196C315.107 104.064 315.159 103.936 315.253 103.842C315.346 103.749 315.473 103.696 315.606 103.695H315.701C315.834 103.695 315.961 103.748 316.055 103.842C316.148 103.936 316.201 104.063 316.201 104.195C316.201 104.328 316.148 104.455 316.055 104.549C315.961 104.643 315.834 104.695 315.701 104.695H315.655ZM318.943 104.195C318.943 104.063 318.996 103.936 319.089 103.842C319.183 103.748 319.31 103.695 319.443 103.695H319.536C319.669 103.695 319.796 103.748 319.89 103.842C319.983 103.936 320.036 104.063 320.036 104.195C320.036 104.328 319.983 104.455 319.89 104.549C319.796 104.643 319.669 104.695 319.536 104.695H319.443C319.31 104.695 319.183 104.643 319.089 104.549C318.996 104.455 318.943 104.328 318.943 104.195ZM322.778 104.195C322.778 104.063 322.831 103.936 322.924 103.842C323.018 103.748 323.145 103.695 323.278 103.695H323.372C323.505 103.695 323.632 103.748 323.726 103.842C323.819 103.936 323.872 104.063 323.872 104.195C323.872 104.328 323.819 104.455 323.726 104.549C323.632 104.643 323.505 104.695 323.372 104.695H323.278C323.145 104.695 323.018 104.643 322.924 104.549C322.831 104.455 322.778 104.328 322.778 104.195ZM326.613 104.195C326.613 104.063 326.666 103.936 326.759 103.842C326.853 103.748 326.98 103.695 327.113 103.695H327.207C327.34 103.695 327.467 103.748 327.561 103.842C327.654 103.936 327.707 104.063 327.707 104.195C327.707 104.328 327.654 104.455 327.561 104.549C327.467 104.643 327.34 104.695 327.207 104.695H327.113C326.98 104.695 326.853 104.643 326.759 104.549C326.666 104.455 326.613 104.328 326.613 104.195ZM330.448 104.195C330.448 104.063 330.501 103.936 330.594 103.842C330.688 103.748 330.815 103.695 330.948 103.695H331.042C331.175 103.695 331.302 103.748 331.396 103.842C331.489 103.936 331.542 104.063 331.542 104.195C331.542 104.328 331.489 104.455 331.396 104.549C331.302 104.643 331.175 104.695 331.042 104.695H330.948C330.815 104.695 330.688 104.643 330.594 104.549C330.501 104.455 330.448 104.328 330.448 104.195ZM334.283 104.195C334.283 104.063 334.336 103.936 334.429 103.842C334.523 103.748 334.65 103.695 334.783 103.695H334.877C335.01 103.695 335.137 103.748 335.231 103.842C335.324 103.936 335.377 104.063 335.377 104.195C335.377 104.328 335.324 104.455 335.231 104.549C335.137 104.643 335.01 104.695 334.877 104.695H334.783C334.65 104.695 334.523 104.643 334.429 104.549C334.336 104.455 334.283 104.328 334.283 104.195ZM338.118 104.195C338.118 104.063 338.171 103.936 338.264 103.842C338.358 103.748 338.485 103.695 338.618 103.695H338.712C338.845 103.695 338.972 103.748 339.066 103.842C339.159 103.936 339.212 104.063 339.212 104.195C339.212 104.328 339.159 104.455 339.066 104.549C338.972 104.643 338.845 104.695 338.712 104.695H338.618C338.485 104.695 338.358 104.643 338.264 104.549C338.171 104.455 338.118 104.328 338.118 104.195ZM341.953 104.195C341.953 104.063 342.006 103.936 342.099 103.842C342.193 103.748 342.32 103.695 342.453 103.695H342.5V104.695H342.453C342.32 104.695 342.193 104.643 342.099 104.549C342.006 104.455 341.953 104.328 341.953 104.195ZM261.256 104.508C261.286 104.379 261.366 104.267 261.478 104.196C261.59 104.126 261.726 104.102 261.855 104.131L261.949 104.153C262.078 104.183 262.19 104.264 262.26 104.376C262.33 104.489 262.353 104.625 262.323 104.754C262.292 104.883 262.212 104.995 262.1 105.065C261.987 105.135 261.851 105.157 261.722 105.127L261.633 105.106C261.504 105.077 261.391 104.997 261.321 104.885C261.25 104.773 261.227 104.638 261.256 104.508ZM312.32 104.517C312.335 104.581 312.337 104.648 312.326 104.712C312.315 104.777 312.292 104.839 312.257 104.895C312.222 104.951 312.177 104.999 312.123 105.037C312.07 105.075 312.009 105.103 311.945 105.117L311.855 105.138C311.791 105.155 311.724 105.158 311.658 105.149C311.592 105.139 311.529 105.116 311.472 105.082C311.415 105.048 311.366 105.002 311.327 104.948C311.287 104.895 311.259 104.834 311.244 104.769C311.229 104.704 311.227 104.637 311.237 104.572C311.248 104.506 311.272 104.443 311.308 104.387C311.343 104.331 311.39 104.282 311.444 104.244C311.498 104.206 311.56 104.179 311.625 104.165L311.72 104.143C311.849 104.113 311.985 104.136 312.097 104.206C312.21 104.276 312.29 104.388 312.32 104.517ZM264.922 105.673C264.951 105.614 264.99 105.561 265.039 105.518C265.088 105.474 265.145 105.441 265.207 105.419C265.269 105.397 265.335 105.388 265.4 105.392C265.466 105.396 265.53 105.413 265.589 105.441L265.676 105.483C265.735 105.512 265.788 105.552 265.831 105.602C265.875 105.651 265.908 105.708 265.929 105.77C265.95 105.833 265.959 105.898 265.955 105.964C265.951 106.029 265.934 106.093 265.905 106.152C265.876 106.211 265.836 106.264 265.787 106.307C265.737 106.351 265.68 106.384 265.618 106.405C265.556 106.427 265.49 106.435 265.425 106.431C265.359 106.427 265.295 106.41 265.236 106.381L265.154 106.341C265.095 106.313 265.042 106.273 264.998 106.224C264.954 106.175 264.921 106.118 264.899 106.056C264.878 105.993 264.869 105.928 264.872 105.862C264.876 105.797 264.893 105.732 264.922 105.673ZM308.612 105.714C308.67 105.833 308.679 105.971 308.636 106.096C308.594 106.221 308.503 106.325 308.384 106.383L308.301 106.424C308.242 106.454 308.178 106.472 308.112 106.477C308.046 106.482 307.98 106.474 307.918 106.453C307.855 106.433 307.797 106.4 307.747 106.356C307.697 106.313 307.656 106.261 307.627 106.202C307.598 106.142 307.58 106.078 307.576 106.012C307.571 105.947 307.58 105.88 307.601 105.818C307.622 105.755 307.656 105.698 307.699 105.648C307.743 105.599 307.796 105.558 307.855 105.529L307.943 105.486C308.062 105.428 308.199 105.419 308.325 105.462C308.45 105.505 308.553 105.595 308.612 105.714ZM268.231 107.632C268.272 107.581 268.323 107.538 268.38 107.507C268.438 107.475 268.501 107.455 268.567 107.448C268.632 107.441 268.698 107.447 268.761 107.465C268.824 107.484 268.883 107.514 268.934 107.555L269.01 107.616C269.104 107.703 269.161 107.822 269.171 107.949C269.18 108.076 269.14 108.202 269.06 108.301C268.979 108.4 268.864 108.465 268.737 108.482C268.611 108.499 268.483 108.467 268.379 108.392L268.308 108.335C268.257 108.294 268.214 108.243 268.183 108.186C268.151 108.128 268.131 108.065 268.124 108C268.117 107.934 268.123 107.868 268.141 107.805C268.159 107.742 268.19 107.684 268.231 107.632ZM305.274 107.723C305.358 107.826 305.398 107.957 305.384 108.089C305.371 108.221 305.306 108.342 305.204 108.426L305.132 108.485C305.082 108.53 305.023 108.564 304.959 108.586C304.896 108.607 304.828 108.616 304.761 108.61C304.694 108.605 304.629 108.587 304.57 108.556C304.51 108.525 304.457 108.482 304.414 108.431C304.371 108.379 304.339 108.319 304.32 108.255C304.301 108.19 304.295 108.123 304.303 108.056C304.31 107.989 304.331 107.924 304.364 107.866C304.397 107.807 304.442 107.756 304.495 107.715L304.57 107.653C304.621 107.612 304.679 107.58 304.742 107.561C304.805 107.542 304.871 107.536 304.936 107.542C305.002 107.549 305.065 107.568 305.123 107.599C305.181 107.63 305.232 107.672 305.274 107.723ZM271.016 110.284C271.12 110.203 271.253 110.166 271.385 110.181C271.517 110.197 271.637 110.264 271.719 110.368L271.748 110.406L271.774 110.439C271.85 110.544 271.883 110.674 271.865 110.803C271.847 110.931 271.78 111.048 271.678 111.128C271.576 111.207 271.447 111.245 271.318 111.231C271.189 111.218 271.07 111.155 270.987 111.055L270.961 111.022L270.933 110.987C270.892 110.936 270.862 110.877 270.844 110.813C270.826 110.75 270.821 110.684 270.829 110.619C270.836 110.553 270.857 110.49 270.889 110.433C270.921 110.375 270.964 110.325 271.016 110.284ZM302.481 110.439C302.7 110.607 302.741 110.921 302.572 111.14L302.544 111.176L302.522 111.205C302.483 111.26 302.434 111.306 302.376 111.341C302.319 111.376 302.256 111.4 302.189 111.41C302.123 111.419 302.055 111.416 301.99 111.399C301.925 111.383 301.864 111.353 301.811 111.312C301.758 111.272 301.713 111.221 301.68 111.162C301.647 111.104 301.626 111.04 301.618 110.973C301.61 110.906 301.616 110.839 301.635 110.774C301.654 110.71 301.686 110.65 301.728 110.598L301.75 110.569L301.78 110.53C301.82 110.478 301.87 110.435 301.927 110.402C301.984 110.369 302.046 110.348 302.112 110.339C302.177 110.331 302.243 110.335 302.306 110.352C302.37 110.37 302.429 110.399 302.481 110.439ZM300.669 112.807C300.889 112.974 300.931 113.288 300.763 113.507L300.741 113.536L300.711 113.575C300.629 113.678 300.511 113.745 300.38 113.761C300.25 113.777 300.119 113.741 300.015 113.661C299.911 113.581 299.842 113.463 299.824 113.333C299.806 113.204 299.84 113.072 299.918 112.966L299.946 112.929L299.968 112.9C300.008 112.848 300.058 112.804 300.115 112.772C300.171 112.739 300.234 112.717 300.299 112.709C300.364 112.7 300.43 112.704 300.494 112.721C300.557 112.738 300.617 112.767 300.669 112.807ZM273.117 112.965C273.169 112.925 273.228 112.895 273.291 112.877C273.355 112.86 273.421 112.855 273.486 112.863C273.551 112.871 273.614 112.892 273.671 112.924C273.728 112.956 273.779 113 273.819 113.051L273.845 113.083L273.873 113.12C273.917 113.171 273.95 113.231 273.97 113.295C273.991 113.36 273.998 113.427 273.991 113.495C273.985 113.562 273.965 113.627 273.932 113.686C273.9 113.745 273.856 113.797 273.803 113.839C273.75 113.881 273.689 113.911 273.624 113.929C273.559 113.947 273.491 113.951 273.424 113.941C273.357 113.932 273.293 113.909 273.235 113.874C273.178 113.839 273.127 113.793 273.088 113.738L273.057 113.7L273.032 113.667C272.991 113.616 272.962 113.556 272.944 113.493C272.926 113.43 272.921 113.364 272.929 113.299C272.937 113.234 272.958 113.171 272.99 113.113C273.022 113.056 273.065 113.006 273.117 112.965ZM298.084 115.676C298.126 115.727 298.158 115.785 298.178 115.848C298.197 115.911 298.204 115.977 298.198 116.042C298.192 116.108 298.174 116.171 298.143 116.229C298.112 116.288 298.071 116.339 298.02 116.381L297.946 116.443C297.844 116.528 297.712 116.568 297.58 116.555C297.448 116.543 297.326 116.478 297.241 116.376C297.157 116.273 297.117 116.142 297.129 116.01C297.142 115.877 297.207 115.756 297.309 115.671L297.38 115.613C297.482 115.528 297.613 115.487 297.745 115.499C297.877 115.511 297.999 115.575 298.084 115.676ZM275.74 115.808C275.824 115.706 275.945 115.64 276.077 115.627C276.208 115.613 276.34 115.653 276.443 115.736L276.514 115.794C276.616 115.878 276.682 115.998 276.696 116.13C276.709 116.261 276.671 116.393 276.588 116.496C276.505 116.599 276.385 116.664 276.253 116.679C276.122 116.694 275.99 116.656 275.887 116.573L275.812 116.512C275.761 116.471 275.719 116.42 275.687 116.362C275.656 116.304 275.637 116.241 275.63 116.175C275.623 116.11 275.63 116.044 275.648 115.981C275.667 115.918 275.698 115.859 275.74 115.808ZM294.909 117.893C294.968 118.012 294.978 118.149 294.936 118.275C294.895 118.401 294.805 118.505 294.686 118.564L294.599 118.607C294.481 118.657 294.349 118.661 294.229 118.616C294.109 118.572 294.01 118.483 293.953 118.368C293.897 118.253 293.886 118.121 293.924 117.999C293.961 117.877 294.045 117.773 294.156 117.71L294.238 117.669C294.297 117.64 294.361 117.622 294.426 117.618C294.492 117.613 294.558 117.621 294.62 117.642C294.682 117.663 294.74 117.696 294.789 117.739C294.839 117.782 294.88 117.835 294.909 117.893ZM278.94 117.987C278.998 117.868 279.101 117.777 279.226 117.734C279.351 117.69 279.489 117.698 279.608 117.756L279.691 117.796C279.753 117.823 279.809 117.862 279.855 117.911C279.901 117.959 279.938 118.017 279.961 118.08C279.985 118.143 279.995 118.21 279.992 118.278C279.989 118.345 279.973 118.411 279.944 118.472C279.915 118.532 279.874 118.586 279.823 118.631C279.772 118.675 279.713 118.709 279.649 118.73C279.585 118.751 279.518 118.759 279.451 118.754C279.384 118.748 279.319 118.729 279.259 118.697L279.171 118.655C279.052 118.597 278.961 118.494 278.917 118.369C278.874 118.244 278.882 118.107 278.94 117.987ZM291.312 119.324C291.327 119.388 291.33 119.454 291.32 119.519C291.309 119.584 291.286 119.646 291.252 119.702C291.218 119.759 291.173 119.807 291.119 119.846C291.066 119.884 291.006 119.912 290.942 119.927L290.847 119.949C290.718 119.979 290.582 119.957 290.469 119.887C290.357 119.817 290.277 119.705 290.246 119.576C290.216 119.447 290.239 119.311 290.309 119.198C290.379 119.086 290.491 119.005 290.62 118.975L290.709 118.954C290.773 118.939 290.839 118.936 290.904 118.947C290.969 118.957 291.031 118.98 291.087 119.014C291.143 119.049 291.192 119.094 291.23 119.147C291.269 119.2 291.297 119.26 291.312 119.324ZM282.554 119.376C282.583 119.247 282.663 119.135 282.775 119.064C282.887 118.993 283.023 118.97 283.152 118.999L283.242 119.019C283.308 119.032 283.37 119.058 283.426 119.095C283.481 119.132 283.529 119.18 283.565 119.236C283.602 119.292 283.627 119.354 283.639 119.42C283.651 119.486 283.65 119.553 283.636 119.618C283.621 119.684 283.594 119.745 283.555 119.8C283.517 119.854 283.467 119.9 283.41 119.936C283.354 119.971 283.29 119.994 283.224 120.004C283.158 120.015 283.091 120.012 283.026 119.995L282.931 119.974C282.802 119.945 282.689 119.866 282.619 119.753C282.548 119.641 282.525 119.506 282.554 119.376ZM287.484 119.906C287.485 119.972 287.472 120.037 287.447 120.098C287.423 120.159 287.386 120.214 287.34 120.261C287.294 120.308 287.24 120.345 287.179 120.371C287.119 120.396 287.054 120.41 286.988 120.41L286.891 120.411C286.825 120.412 286.76 120.399 286.699 120.374C286.639 120.349 286.583 120.313 286.537 120.266C286.49 120.22 286.453 120.165 286.428 120.104C286.402 120.044 286.389 119.979 286.389 119.913C286.389 119.848 286.401 119.783 286.426 119.722C286.451 119.661 286.488 119.606 286.534 119.559C286.58 119.513 286.635 119.476 286.696 119.45C286.756 119.425 286.821 119.412 286.887 119.411L286.979 119.41C287.112 119.41 287.239 119.461 287.334 119.554C287.428 119.647 287.482 119.774 287.484 119.906Z"/>
</mask>
<path fill-rule="evenodd" clip-rule="evenodd" d="M233.55 104.695H233.5V103.695H233.55C233.683 103.695 233.81 103.748 233.904 103.842C233.997 103.936 234.05 104.063 234.05 104.195C234.05 104.328 233.997 104.455 233.904 104.549C233.81 104.643 233.683 104.695 233.55 104.695ZM237.029 104.195C237.029 104.063 237.082 103.936 237.175 103.842C237.269 103.748 237.396 103.695 237.529 103.695H237.628C237.761 103.695 237.888 103.748 237.982 103.842C238.075 103.936 238.128 104.063 238.128 104.195C238.128 104.328 238.075 104.455 237.982 104.549C237.888 104.643 237.761 104.695 237.628 104.695H237.529C237.396 104.695 237.269 104.643 237.175 104.549C237.082 104.455 237.029 104.328 237.029 104.195ZM241.107 104.195C241.107 104.063 241.16 103.936 241.253 103.842C241.347 103.748 241.474 103.695 241.607 103.695H241.706C241.839 103.695 241.966 103.748 242.06 103.842C242.153 103.936 242.206 104.063 242.206 104.195C242.206 104.328 242.153 104.455 242.06 104.549C241.966 104.643 241.839 104.695 241.706 104.695H241.607C241.474 104.695 241.347 104.643 241.253 104.549C241.16 104.455 241.107 104.328 241.107 104.195ZM245.185 104.195C245.185 104.063 245.238 103.936 245.331 103.842C245.425 103.748 245.552 103.695 245.685 103.695H245.785C245.918 103.695 246.045 103.748 246.139 103.842C246.232 103.936 246.285 104.063 246.285 104.195C246.285 104.328 246.232 104.455 246.139 104.549C246.045 104.643 245.918 104.695 245.785 104.695H245.685C245.552 104.695 245.425 104.643 245.331 104.549C245.238 104.455 245.185 104.328 245.185 104.195ZM249.264 104.195C249.264 104.063 249.317 103.936 249.41 103.842C249.504 103.748 249.631 103.695 249.764 103.695H249.863C249.996 103.695 250.123 103.748 250.217 103.842C250.31 103.936 250.363 104.063 250.363 104.195C250.363 104.328 250.31 104.455 250.217 104.549C250.123 104.643 249.996 104.695 249.863 104.695H249.764C249.631 104.695 249.504 104.643 249.41 104.549C249.317 104.455 249.264 104.328 249.264 104.195ZM253.342 104.195C253.342 104.063 253.395 103.936 253.488 103.842C253.582 103.748 253.709 103.695 253.842 103.695H253.941C254.074 103.695 254.201 103.748 254.295 103.842C254.388 103.936 254.441 104.063 254.441 104.195C254.441 104.328 254.388 104.455 254.295 104.549C254.201 104.643 254.074 104.695 253.941 104.695H253.842C253.709 104.695 253.582 104.643 253.488 104.549C253.395 104.455 253.342 104.328 253.342 104.195ZM257.42 104.195C257.42 104.063 257.473 103.936 257.566 103.842C257.66 103.748 257.787 103.695 257.92 103.695H258.018C258.151 103.696 258.278 103.749 258.371 103.842C258.465 103.936 258.517 104.064 258.517 104.196C258.517 104.329 258.464 104.456 258.37 104.55C258.276 104.643 258.149 104.696 258.016 104.695H257.92C257.787 104.695 257.66 104.643 257.566 104.549C257.473 104.455 257.42 104.328 257.42 104.195ZM315.655 104.695H315.608C315.475 104.696 315.348 104.643 315.254 104.55C315.16 104.456 315.107 104.329 315.107 104.196C315.107 104.064 315.159 103.936 315.253 103.842C315.346 103.749 315.473 103.696 315.606 103.695H315.701C315.834 103.695 315.961 103.748 316.055 103.842C316.148 103.936 316.201 104.063 316.201 104.195C316.201 104.328 316.148 104.455 316.055 104.549C315.961 104.643 315.834 104.695 315.701 104.695H315.655ZM318.943 104.195C318.943 104.063 318.996 103.936 319.089 103.842C319.183 103.748 319.31 103.695 319.443 103.695H319.536C319.669 103.695 319.796 103.748 319.89 103.842C319.983 103.936 320.036 104.063 320.036 104.195C320.036 104.328 319.983 104.455 319.89 104.549C319.796 104.643 319.669 104.695 319.536 104.695H319.443C319.31 104.695 319.183 104.643 319.089 104.549C318.996 104.455 318.943 104.328 318.943 104.195ZM322.778 104.195C322.778 104.063 322.831 103.936 322.924 103.842C323.018 103.748 323.145 103.695 323.278 103.695H323.372C323.505 103.695 323.632 103.748 323.726 103.842C323.819 103.936 323.872 104.063 323.872 104.195C323.872 104.328 323.819 104.455 323.726 104.549C323.632 104.643 323.505 104.695 323.372 104.695H323.278C323.145 104.695 323.018 104.643 322.924 104.549C322.831 104.455 322.778 104.328 322.778 104.195ZM326.613 104.195C326.613 104.063 326.666 103.936 326.759 103.842C326.853 103.748 326.98 103.695 327.113 103.695H327.207C327.34 103.695 327.467 103.748 327.561 103.842C327.654 103.936 327.707 104.063 327.707 104.195C327.707 104.328 327.654 104.455 327.561 104.549C327.467 104.643 327.34 104.695 327.207 104.695H327.113C326.98 104.695 326.853 104.643 326.759 104.549C326.666 104.455 326.613 104.328 326.613 104.195ZM330.448 104.195C330.448 104.063 330.501 103.936 330.594 103.842C330.688 103.748 330.815 103.695 330.948 103.695H331.042C331.175 103.695 331.302 103.748 331.396 103.842C331.489 103.936 331.542 104.063 331.542 104.195C331.542 104.328 331.489 104.455 331.396 104.549C331.302 104.643 331.175 104.695 331.042 104.695H330.948C330.815 104.695 330.688 104.643 330.594 104.549C330.501 104.455 330.448 104.328 330.448 104.195ZM334.283 104.195C334.283 104.063 334.336 103.936 334.429 103.842C334.523 103.748 334.65 103.695 334.783 103.695H334.877C335.01 103.695 335.137 103.748 335.231 103.842C335.324 103.936 335.377 104.063 335.377 104.195C335.377 104.328 335.324 104.455 335.231 104.549C335.137 104.643 335.01 104.695 334.877 104.695H334.783C334.65 104.695 334.523 104.643 334.429 104.549C334.336 104.455 334.283 104.328 334.283 104.195ZM338.118 104.195C338.118 104.063 338.171 103.936 338.264 103.842C338.358 103.748 338.485 103.695 338.618 103.695H338.712C338.845 103.695 338.972 103.748 339.066 103.842C339.159 103.936 339.212 104.063 339.212 104.195C339.212 104.328 339.159 104.455 339.066 104.549C338.972 104.643 338.845 104.695 338.712 104.695H338.618C338.485 104.695 338.358 104.643 338.264 104.549C338.171 104.455 338.118 104.328 338.118 104.195ZM341.953 104.195C341.953 104.063 342.006 103.936 342.099 103.842C342.193 103.748 342.32 103.695 342.453 103.695H342.5V104.695H342.453C342.32 104.695 342.193 104.643 342.099 104.549C342.006 104.455 341.953 104.328 341.953 104.195ZM261.256 104.508C261.286 104.379 261.366 104.267 261.478 104.196C261.59 104.126 261.726 104.102 261.855 104.131L261.949 104.153C262.078 104.183 262.19 104.264 262.26 104.376C262.33 104.489 262.353 104.625 262.323 104.754C262.292 104.883 262.212 104.995 262.1 105.065C261.987 105.135 261.851 105.157 261.722 105.127L261.633 105.106C261.504 105.077 261.391 104.997 261.321 104.885C261.25 104.773 261.227 104.638 261.256 104.508ZM312.32 104.517C312.335 104.581 312.337 104.648 312.326 104.712C312.315 104.777 312.292 104.839 312.257 104.895C312.222 104.951 312.177 104.999 312.123 105.037C312.07 105.075 312.009 105.103 311.945 105.117L311.855 105.138C311.791 105.155 311.724 105.158 311.658 105.149C311.592 105.139 311.529 105.116 311.472 105.082C311.415 105.048 311.366 105.002 311.327 104.948C311.287 104.895 311.259 104.834 311.244 104.769C311.229 104.704 311.227 104.637 311.237 104.572C311.248 104.506 311.272 104.443 311.308 104.387C311.343 104.331 311.39 104.282 311.444 104.244C311.498 104.206 311.56 104.179 311.625 104.165L311.72 104.143C311.849 104.113 311.985 104.136 312.097 104.206C312.21 104.276 312.29 104.388 312.32 104.517ZM264.922 105.673C264.951 105.614 264.99 105.561 265.039 105.518C265.088 105.474 265.145 105.441 265.207 105.419C265.269 105.397 265.335 105.388 265.4 105.392C265.466 105.396 265.53 105.413 265.589 105.441L265.676 105.483C265.735 105.512 265.788 105.552 265.831 105.602C265.875 105.651 265.908 105.708 265.929 105.77C265.95 105.833 265.959 105.898 265.955 105.964C265.951 106.029 265.934 106.093 265.905 106.152C265.876 106.211 265.836 106.264 265.787 106.307C265.737 106.351 265.68 106.384 265.618 106.405C265.556 106.427 265.49 106.435 265.425 106.431C265.359 106.427 265.295 106.41 265.236 106.381L265.154 106.341C265.095 106.313 265.042 106.273 264.998 106.224C264.954 106.175 264.921 106.118 264.899 106.056C264.878 105.993 264.869 105.928 264.872 105.862C264.876 105.797 264.893 105.732 264.922 105.673ZM308.612 105.714C308.67 105.833 308.679 105.971 308.636 106.096C308.594 106.221 308.503 106.325 308.384 106.383L308.301 106.424C308.242 106.454 308.178 106.472 308.112 106.477C308.046 106.482 307.98 106.474 307.918 106.453C307.855 106.433 307.797 106.4 307.747 106.356C307.697 106.313 307.656 106.261 307.627 106.202C307.598 106.142 307.58 106.078 307.576 106.012C307.571 105.947 307.58 105.88 307.601 105.818C307.622 105.755 307.656 105.698 307.699 105.648C307.743 105.599 307.796 105.558 307.855 105.529L307.943 105.486C308.062 105.428 308.199 105.419 308.325 105.462C308.45 105.505 308.553 105.595 308.612 105.714ZM268.231 107.632C268.272 107.581 268.323 107.538 268.38 107.507C268.438 107.475 268.501 107.455 268.567 107.448C268.632 107.441 268.698 107.447 268.761 107.465C268.824 107.484 268.883 107.514 268.934 107.555L269.01 107.616C269.104 107.703 269.161 107.822 269.171 107.949C269.18 108.076 269.14 108.202 269.06 108.301C268.979 108.4 268.864 108.465 268.737 108.482C268.611 108.499 268.483 108.467 268.379 108.392L268.308 108.335C268.257 108.294 268.214 108.243 268.183 108.186C268.151 108.128 268.131 108.065 268.124 108C268.117 107.934 268.123 107.868 268.141 107.805C268.159 107.742 268.19 107.684 268.231 107.632ZM305.274 107.723C305.358 107.826 305.398 107.957 305.384 108.089C305.371 108.221 305.306 108.342 305.204 108.426L305.132 108.485C305.082 108.53 305.023 108.564 304.959 108.586C304.896 108.607 304.828 108.616 304.761 108.61C304.694 108.605 304.629 108.587 304.57 108.556C304.51 108.525 304.457 108.482 304.414 108.431C304.371 108.379 304.339 108.319 304.32 108.255C304.301 108.19 304.295 108.123 304.303 108.056C304.31 107.989 304.331 107.924 304.364 107.866C304.397 107.807 304.442 107.756 304.495 107.715L304.57 107.653C304.621 107.612 304.679 107.58 304.742 107.561C304.805 107.542 304.871 107.536 304.936 107.542C305.002 107.549 305.065 107.568 305.123 107.599C305.181 107.63 305.232 107.672 305.274 107.723ZM271.016 110.284C271.12 110.203 271.253 110.166 271.385 110.181C271.517 110.197 271.637 110.264 271.719 110.368L271.748 110.406L271.774 110.439C271.85 110.544 271.883 110.674 271.865 110.803C271.847 110.931 271.78 111.048 271.678 111.128C271.576 111.207 271.447 111.245 271.318 111.231C271.189 111.218 271.07 111.155 270.987 111.055L270.961 111.022L270.933 110.987C270.892 110.936 270.862 110.877 270.844 110.813C270.826 110.75 270.821 110.684 270.829 110.619C270.836 110.553 270.857 110.49 270.889 110.433C270.921 110.375 270.964 110.325 271.016 110.284ZM302.481 110.439C302.7 110.607 302.741 110.921 302.572 111.14L302.544 111.176L302.522 111.205C302.483 111.26 302.434 111.306 302.376 111.341C302.319 111.376 302.256 111.4 302.189 111.41C302.123 111.419 302.055 111.416 301.99 111.399C301.925 111.383 301.864 111.353 301.811 111.312C301.758 111.272 301.713 111.221 301.68 111.162C301.647 111.104 301.626 111.04 301.618 110.973C301.61 110.906 301.616 110.839 301.635 110.774C301.654 110.71 301.686 110.65 301.728 110.598L301.75 110.569L301.78 110.53C301.82 110.478 301.87 110.435 301.927 110.402C301.984 110.369 302.046 110.348 302.112 110.339C302.177 110.331 302.243 110.335 302.306 110.352C302.37 110.37 302.429 110.399 302.481 110.439ZM300.669 112.807C300.889 112.974 300.931 113.288 300.763 113.507L300.741 113.536L300.711 113.575C300.629 113.678 300.511 113.745 300.38 113.761C300.25 113.777 300.119 113.741 300.015 113.661C299.911 113.581 299.842 113.463 299.824 113.333C299.806 113.204 299.84 113.072 299.918 112.966L299.946 112.929L299.968 112.9C300.008 112.848 300.058 112.804 300.115 112.772C300.171 112.739 300.234 112.717 300.299 112.709C300.364 112.7 300.43 112.704 300.494 112.721C300.557 112.738 300.617 112.767 300.669 112.807ZM273.117 112.965C273.169 112.925 273.228 112.895 273.291 112.877C273.355 112.86 273.421 112.855 273.486 112.863C273.551 112.871 273.614 112.892 273.671 112.924C273.728 112.956 273.779 113 273.819 113.051L273.845 113.083L273.873 113.12C273.917 113.171 273.95 113.231 273.97 113.295C273.991 113.36 273.998 113.427 273.991 113.495C273.985 113.562 273.965 113.627 273.932 113.686C273.9 113.745 273.856 113.797 273.803 113.839C273.75 113.881 273.689 113.911 273.624 113.929C273.559 113.947 273.491 113.951 273.424 113.941C273.357 113.932 273.293 113.909 273.235 113.874C273.178 113.839 273.127 113.793 273.088 113.738L273.057 113.7L273.032 113.667C272.991 113.616 272.962 113.556 272.944 113.493C272.926 113.43 272.921 113.364 272.929 113.299C272.937 113.234 272.958 113.171 272.99 113.113C273.022 113.056 273.065 113.006 273.117 112.965ZM298.084 115.676C298.126 115.727 298.158 115.785 298.178 115.848C298.197 115.911 298.204 115.977 298.198 116.042C298.192 116.108 298.174 116.171 298.143 116.229C298.112 116.288 298.071 116.339 298.02 116.381L297.946 116.443C297.844 116.528 297.712 116.568 297.58 116.555C297.448 116.543 297.326 116.478 297.241 116.376C297.157 116.273 297.117 116.142 297.129 116.01C297.142 115.877 297.207 115.756 297.309 115.671L297.38 115.613C297.482 115.528 297.613 115.487 297.745 115.499C297.877 115.511 297.999 115.575 298.084 115.676ZM275.74 115.808C275.824 115.706 275.945 115.64 276.077 115.627C276.208 115.613 276.34 115.653 276.443 115.736L276.514 115.794C276.616 115.878 276.682 115.998 276.696 116.13C276.709 116.261 276.671 116.393 276.588 116.496C276.505 116.599 276.385 116.664 276.253 116.679C276.122 116.694 275.99 116.656 275.887 116.573L275.812 116.512C275.761 116.471 275.719 116.42 275.687 116.362C275.656 116.304 275.637 116.241 275.63 116.175C275.623 116.11 275.63 116.044 275.648 115.981C275.667 115.918 275.698 115.859 275.74 115.808ZM294.909 117.893C294.968 118.012 294.978 118.149 294.936 118.275C294.895 118.401 294.805 118.505 294.686 118.564L294.599 118.607C294.481 118.657 294.349 118.661 294.229 118.616C294.109 118.572 294.01 118.483 293.953 118.368C293.897 118.253 293.886 118.121 293.924 117.999C293.961 117.877 294.045 117.773 294.156 117.71L294.238 117.669C294.297 117.64 294.361 117.622 294.426 117.618C294.492 117.613 294.558 117.621 294.62 117.642C294.682 117.663 294.74 117.696 294.789 117.739C294.839 117.782 294.88 117.835 294.909 117.893ZM278.94 117.987C278.998 117.868 279.101 117.777 279.226 117.734C279.351 117.69 279.489 117.698 279.608 117.756L279.691 117.796C279.753 117.823 279.809 117.862 279.855 117.911C279.901 117.959 279.938 118.017 279.961 118.08C279.985 118.143 279.995 118.21 279.992 118.278C279.989 118.345 279.973 118.411 279.944 118.472C279.915 118.532 279.874 118.586 279.823 118.631C279.772 118.675 279.713 118.709 279.649 118.73C279.585 118.751 279.518 118.759 279.451 118.754C279.384 118.748 279.319 118.729 279.259 118.697L279.171 118.655C279.052 118.597 278.961 118.494 278.917 118.369C278.874 118.244 278.882 118.107 278.94 117.987ZM291.312 119.324C291.327 119.388 291.33 119.454 291.32 119.519C291.309 119.584 291.286 119.646 291.252 119.702C291.218 119.759 291.173 119.807 291.119 119.846C291.066 119.884 291.006 119.912 290.942 119.927L290.847 119.949C290.718 119.979 290.582 119.957 290.469 119.887C290.357 119.817 290.277 119.705 290.246 119.576C290.216 119.447 290.239 119.311 290.309 119.198C290.379 119.086 290.491 119.005 290.62 118.975L290.709 118.954C290.773 118.939 290.839 118.936 290.904 118.947C290.969 118.957 291.031 118.98 291.087 119.014C291.143 119.049 291.192 119.094 291.23 119.147C291.269 119.2 291.297 119.26 291.312 119.324ZM282.554 119.376C282.583 119.247 282.663 119.135 282.775 119.064C282.887 118.993 283.023 118.97 283.152 118.999L283.242 119.019C283.308 119.032 283.37 119.058 283.426 119.095C283.481 119.132 283.529 119.18 283.565 119.236C283.602 119.292 283.627 119.354 283.639 119.42C283.651 119.486 283.65 119.553 283.636 119.618C283.621 119.684 283.594 119.745 283.555 119.8C283.517 119.854 283.467 119.9 283.41 119.936C283.354 119.971 283.29 119.994 283.224 120.004C283.158 120.015 283.091 120.012 283.026 119.995L282.931 119.974C282.802 119.945 282.689 119.866 282.619 119.753C282.548 119.641 282.525 119.506 282.554 119.376ZM287.484 119.906C287.485 119.972 287.472 120.037 287.447 120.098C287.423 120.159 287.386 120.214 287.34 120.261C287.294 120.308 287.24 120.345 287.179 120.371C287.119 120.396 287.054 120.41 286.988 120.41L286.891 120.411C286.825 120.412 286.76 120.399 286.699 120.374C286.639 120.349 286.583 120.313 286.537 120.266C286.49 120.22 286.453 120.165 286.428 120.104C286.402 120.044 286.389 119.979 286.389 119.913C286.389 119.848 286.401 119.783 286.426 119.722C286.451 119.661 286.488 119.606 286.534 119.559C286.58 119.513 286.635 119.476 286.696 119.45C286.756 119.425 286.821 119.412 286.887 119.411L286.979 119.41C287.112 119.41 287.239 119.461 287.334 119.554C287.428 119.647 287.482 119.774 287.484 119.906Z" fill="url(#paint2_linear_698_5961)" stroke="url(#paint3_radial_698_5961)" stroke-width="2" mask="url(#path-3-inside-1_698_5961)"/>
<g filter="url(#filter1_di_698_5961)">
<path d="M286.493 95.6953H286.494C292.013 95.6953 296.487 100.169 296.487 105.688V105.689C296.487 111.208 292.013 115.682 286.494 115.682H286.493C280.974 115.682 276.5 111.208 276.5 105.689V105.688C276.5 100.169 280.974 95.6953 286.493 95.6953Z" fill="url(#paint4_linear_698_5961)" stroke="url(#paint5_radial_698_5961)"/>
<path d="M296.572 105.689C296.572 100.124 292.06 95.6123 286.495 95.6123C280.93 95.6123 276.418 100.124 276.418 105.689C276.418 111.255 280.93 115.766 286.495 115.766C292.06 115.766 296.572 111.255 296.572 105.689Z" stroke="url(#paint6_radial_698_5961)" stroke-width="0.833"/>
</g>
<g filter="url(#filter2_di_698_5961)">
<path d="M287.029 101.726L287.031 101.724C287.04 101.715 287.05 101.708 287.062 101.703C287.074 101.698 287.087 101.695 287.1 101.695C287.113 101.695 287.126 101.698 287.138 101.703C287.15 101.708 287.16 101.715 287.169 101.724L287.17 101.725L291.17 105.725L291.171 105.726C291.181 105.735 291.188 105.746 291.193 105.758C291.198 105.77 291.2 105.783 291.2 105.796C291.2 105.809 291.198 105.821 291.193 105.833C291.188 105.845 291.181 105.856 291.171 105.865L291.17 105.866L287.179 109.857C287.161 109.873 287.137 109.881 287.113 109.881C287.087 109.88 287.063 109.87 287.044 109.851C287.026 109.833 287.015 109.808 287.015 109.782C287.015 109.758 287.023 109.735 287.038 109.716L290.005 106.749L290.858 105.896H289.651H281.6C281.573 105.896 281.548 105.885 281.529 105.866C281.511 105.848 281.5 105.822 281.5 105.796C281.5 105.769 281.511 105.744 281.529 105.725C281.548 105.706 281.573 105.696 281.6 105.696H289.651H290.858L290.005 104.842L287.03 101.866L287.029 101.865C287.019 101.856 287.012 101.845 287.007 101.833C287.002 101.821 287 101.809 287 101.796C287 101.783 287.002 101.77 287.007 101.758C287.012 101.746 287.019 101.735 287.029 101.726ZM287.33 101.241C287.402 101.271 287.468 101.316 287.524 101.372H286.676C286.732 101.316 286.798 101.271 286.87 101.241C286.943 101.211 287.021 101.195 287.1 101.195C287.179 101.195 287.257 101.211 287.33 101.241Z" fill="url(#paint7_radial_698_5961)" stroke="url(#paint8_radial_698_5961)"/>
</g>
<g filter="url(#filter3_di_698_5961)">
<path d="M234.5 104.195C234.5 105.024 233.828 105.695 233 105.695C232.172 105.695 231.5 105.024 231.5 104.195C231.5 103.367 232.172 102.695 233 102.695C233.828 102.695 234.5 103.367 234.5 104.195Z" fill="url(#paint9_radial_698_5961)" stroke="url(#paint10_radial_698_5961)"/>
</g>
<g filter="url(#filter4_di_698_5961)">
<path d="M344.5 104.195C344.5 105.024 343.828 105.695 343 105.695C342.172 105.695 341.5 105.024 341.5 104.195C341.5 103.367 342.172 102.695 343 102.695C343.828 102.695 344.5 103.367 344.5 104.195Z" fill="url(#paint11_radial_698_5961)" stroke="url(#paint12_radial_698_5961)"/>
</g>
</g>
<rect x="427" y="55" width="142" height="142" rx="14" fill="url(#paint13_radial_698_5961)"/>
<g filter="url(#filter5_d_698_5961)">
<rect x="389" y="45" width="142" height="142" rx="12" fill="url(#paint14_radial_698_5961)" shape-rendering="crispEdges"/>
</g>
<g filter="url(#filter6_d_698_5961)">
<rect x="351" y="35" width="142" height="142" rx="12" fill="url(#paint15_radial_698_5961)" shape-rendering="crispEdges"/>
</g>
<path d="M383 97.2785C383 95.0885 383.898 92.9945 385.483 91.4845L422.004 62.7595C422.58 62.2117 423.258 61.7836 424 61.5C424.742 61.2164 425.533 61.083 426.327 61.1074C427.121 61.1319 427.902 61.3138 428.625 61.6425C429.348 61.9713 429.999 62.4403 430.539 63.0225L466.668 91.4845C468.041 92.9641 468.804 94.908 468.804 96.9265L468.5 141.779C468.5 143.638 467.852 145.44 466.668 146.874C465.483 148.307 463.836 149.284 462.01 149.635H392.51C387.577 150.584 383 146.803 383 141.779V97.2785Z" fill="url(#paint16_radial_698_5961)"/>
<g filter="url(#filter7_i_698_5961)">
<path d="M383 97.2785C383 95.0885 383.898 92.9945 385.483 91.4845L422.004 62.7595C422.58 62.2117 423.258 61.7836 424 61.5C424.742 61.2164 425.533 61.083 426.327 61.1074C427.121 61.1319 427.902 61.3138 428.625 61.6425C429.348 61.9713 429.999 62.4403 430.539 63.0225L466.668 91.4845C468.041 92.9641 468.804 94.908 468.804 96.9265L468.5 141.779C468.5 143.638 467.852 145.44 466.668 146.874C465.483 148.307 463.836 149.284 462.01 149.635H392.51C387.577 150.584 383 146.803 383 141.779V97.2785Z" fill="#1A1A1A"/>
</g>
<path d="M422.314 63.1525L422.332 63.1379L422.349 63.1216C422.877 62.6195 423.498 62.227 424.179 61.967C424.859 61.7071 425.584 61.5848 426.312 61.6072C427.039 61.6296 427.755 61.7963 428.418 62.0977C429.081 62.399 429.678 62.829 430.173 63.3627L430.199 63.3912L430.23 63.4153L466.327 91.8528C467.598 93.2361 468.303 95.0462 468.304 96.9254C468.304 96.9258 468.304 96.9262 468.304 96.9265L468 141.775V141.779C468 143.522 467.393 145.211 466.282 146.555C465.182 147.887 463.655 148.798 461.962 149.135H392.51H392.462L392.416 149.144C387.791 150.033 383.5 146.489 383.5 141.779V97.2785C383.5 95.2332 384.336 93.2771 385.811 91.8627L422.314 63.1525Z" stroke="#737373" stroke-opacity="0.31"/>
<path d="M468 132.5H383" stroke="#262626" stroke-opacity="0.47" stroke-linecap="round"/>
<path d="M468 114.5L383 114.5" stroke="#262626" stroke-opacity="0.47" stroke-linecap="round"/>
<path d="M468 96.5L383 96.5" stroke="#262626" stroke-opacity="0.47" stroke-linecap="round"/>
<path d="M450 78.5H402" stroke="#262626" stroke-opacity="0.47" stroke-linecap="round"/>
<path d="M404.5 150L404.5 76" stroke="#262626" stroke-opacity="0.47" stroke-linecap="round"/>
<path d="M386.5 150L386.5 91" stroke="#262626" stroke-opacity="0.47" stroke-linecap="round"/>
<path d="M422.5 150L422.5 63" stroke="#262626" stroke-opacity="0.47" stroke-linecap="round"/>
<path d="M440.5 150L440.5 71" stroke="#262626" stroke-opacity="0.47" stroke-linecap="round"/>
<path d="M458.5 150L458.5 86" stroke="#262626" stroke-opacity="0.47" stroke-linecap="round"/>
<rect opacity="0.75" x="440" y="114" width="19" height="19" fill="url(#paint17_radial_698_5961)"/>
<rect opacity="0.75" x="404" y="96" width="19" height="19" fill="url(#paint18_radial_698_5961)"/>
<rect x="11" y="55" width="142" height="142" rx="14" fill="url(#paint19_radial_698_5961)"/>
<g filter="url(#filter8_d_698_5961)">
<rect x="43" y="45" width="142" height="142" rx="12" fill="url(#paint20_radial_698_5961)" shape-rendering="crispEdges"/>
</g>
<g clip-path="url(#clip0_698_5961)">
<g filter="url(#filter9_d_698_5961)">
<rect x="82" y="35" width="142" height="142" rx="14" fill="#272727" shape-rendering="crispEdges"/>
<rect x="82" y="35" width="142" height="142" rx="14" stroke="url(#paint21_radial_698_5961)" shape-rendering="crispEdges"/>
</g>
<path d="M114 97.2785C114 95.0885 114.898 92.9945 116.483 91.4845L153.004 62.7595C153.58 62.2117 154.258 61.7836 155 61.5C155.742 61.2164 156.533 61.083 157.327 61.1074C158.121 61.1319 158.902 61.3138 159.625 61.6425C160.348 61.9713 160.999 62.4403 161.539 63.0225L197.668 91.4845C199.041 92.9641 199.804 94.908 199.804 96.9265L199.5 141.779C199.5 143.638 198.852 145.44 197.668 146.874C196.483 148.307 194.836 149.284 193.01 149.635H123.51C118.577 150.584 114 146.803 114 141.779V97.2785Z" fill="url(#paint22_radial_698_5961)"/>
<g filter="url(#filter10_f_698_5961)">
<path d="M184.5 228C228.407 228 264 192.854 264 149.5C264 106.146 228.407 71 184.5 71C140.593 71 105 106.146 105 149.5C105 192.854 140.593 228 184.5 228Z" fill="url(#paint23_radial_698_5961)"/>
</g>
</g>
<defs>
<filter id="filter0_f_698_5961" x="182" y="0.195312" width="210" height="210" filterUnits="userSpaceOnUse" color-interpolation-filters="sRGB">
<feFlood flood-opacity="0" result="BackgroundImageFix"/>
<feBlend mode="normal" in="SourceGraphic" in2="BackgroundImageFix" result="shape"/>
<feGaussianBlur stdDeviation="20" result="effect1_foregroundBlur_698_5961"/>
</filter>
<filter id="filter1_di_698_5961" x="269.334" y="91.8623" width="34.3203" height="34.3193" filterUnits="userSpaceOnUse" color-interpolation-filters="sRGB">
<feFlood flood-opacity="0" result="BackgroundImageFix"/>
<feColorMatrix in="SourceAlpha" type="matrix" values="0 0 0 0 0 0 0 0 0 0 0 0 0 0 0 0 0 0 127 0" result="hardAlpha"/>
<feOffset dy="3.333"/>
<feGaussianBlur stdDeviation="3.333"/>
<feComposite in2="hardAlpha" operator="out"/>
<feColorMatrix type="matrix" values="0 0 0 0 0 0 0 0 0 0 0 0 0 0 0 0 0 0 0.25 0"/>
<feBlend mode="normal" in2="BackgroundImageFix" result="effect1_dropShadow_698_5961"/>
<feBlend mode="normal" in="SourceGraphic" in2="effect1_dropShadow_698_5961" result="shape"/>
<feColorMatrix in="SourceAlpha" type="matrix" values="0 0 0 0 0 0 0 0 0 0 0 0 0 0 0 0 0 0 127 0" result="hardAlpha"/>
<feOffset dy="0.833"/>
<feGaussianBlur stdDeviation="0.833"/>
<feComposite in2="hardAlpha" operator="arithmetic" k2="-1" k3="1"/>
<feColorMatrix type="matrix" values="0 0 0 0 0 0 0 0 0 0 0 0 0 0 0 0 0 0 0.25 0"/>
<feBlend mode="normal" in2="shape" result="effect2_innerShadow_698_5961"/>
</filter>
<filter id="filter2_di_698_5961" x="279.412" y="100.401" width="13.8772" height="12.3615" filterUnits="userSpaceOnUse" color-interpolation-filters="sRGB">
<feFlood flood-opacity="0" result="BackgroundImageFix"/>
<feColorMatrix in="SourceAlpha" type="matrix" values="0 0 0 0 0 0 0 0 0 0 0 0 0 0 0 0 0 0 127 0" result="hardAlpha"/>
<feOffset dy="0.794"/>
<feGaussianBlur stdDeviation="0.794"/>
<feComposite in2="hardAlpha" operator="out"/>
<feColorMatrix type="matrix" values="0 0 0 0 0 0 0 0 0 0 0 0 0 0 0 0 0 0 0.25 0"/>
<feBlend mode="normal" in2="BackgroundImageFix" result="effect1_dropShadow_698_5961"/>
<feBlend mode="normal" in="SourceGraphic" in2="effect1_dropShadow_698_5961" result="shape"/>
<feColorMatrix in="SourceAlpha" type="matrix" values="0 0 0 0 0 0 0 0 0 0 0 0 0 0 0 0 0 0 127 0" result="hardAlpha"/>
<feOffset dy="0.198"/>
<feGaussianBlur stdDeviation="0.099"/>
<feComposite in2="hardAlpha" operator="arithmetic" k2="-1" k3="1"/>
<feColorMatrix type="matrix" values="0 0 0 0 0 0 0 0 0 0 0 0 0 0 0 0 0 0 0.25 0"/>
<feBlend mode="normal" in2="shape" result="effect2_innerShadow_698_5961"/>
</filter>
<filter id="filter3_di_698_5961" x="225.74" y="100.881" width="14.52" height="15.834" filterUnits="userSpaceOnUse" color-interpolation-filters="sRGB">
<feFlood flood-opacity="0" result="BackgroundImageFix"/>
<feColorMatrix in="SourceAlpha" type="matrix" values="0 0 0 0 0 0 0 0 0 0 0 0 0 0 0 0 0 0 127 0" result="hardAlpha"/>
<feOffset dy="5.26"/>
<feGaussianBlur stdDeviation="2.63"/>
<feComposite in2="hardAlpha" operator="out"/>
<feColorMatrix type="matrix" values="0 0 0 0 0.945098 0 0 0 0 0.298039 0 0 0 0 0.152941 0 0 0 0.07 0"/>
<feBlend mode="normal" in2="BackgroundImageFix" result="effect1_dropShadow_698_5961"/>
<feBlend mode="normal" in="SourceGraphic" in2="effect1_dropShadow_698_5961" result="shape"/>
<feColorMatrix in="SourceAlpha" type="matrix" values="0 0 0 0 0 0 0 0 0 0 0 0 0 0 0 0 0 0 127 0" result="hardAlpha"/>
<feOffset dy="-1.315"/>
<feGaussianBlur stdDeviation="0.657"/>
<feComposite in2="hardAlpha" operator="arithmetic" k2="-1" k3="1"/>
<feColorMatrix type="matrix" values="0 0 0 0 1 0 0 0 0 1 0 0 0 0 1 0 0 0 0.29 0"/>
<feBlend mode="normal" in2="shape" result="effect2_innerShadow_698_5961"/>
</filter>
<filter id="filter4_di_698_5961" x="335.74" y="100.881" width="14.52" height="15.834" filterUnits="userSpaceOnUse" color-interpolation-filters="sRGB">
<feFlood flood-opacity="0" result="BackgroundImageFix"/>
<feColorMatrix in="SourceAlpha" type="matrix" values="0 0 0 0 0 0 0 0 0 0 0 0 0 0 0 0 0 0 127 0" result="hardAlpha"/>
<feOffset dy="5.26"/>
<feGaussianBlur stdDeviation="2.63"/>
<feComposite in2="hardAlpha" operator="out"/>
<feColorMatrix type="matrix" values="0 0 0 0 0.945098 0 0 0 0 0.298039 0 0 0 0 0.152941 0 0 0 0.07 0"/>
<feBlend mode="normal" in2="BackgroundImageFix" result="effect1_dropShadow_698_5961"/>
<feBlend mode="normal" in="SourceGraphic" in2="effect1_dropShadow_698_5961" result="shape"/>
<feColorMatrix in="SourceAlpha" type="matrix" values="0 0 0 0 0 0 0 0 0 0 0 0 0 0 0 0 0 0 127 0" result="hardAlpha"/>
<feOffset dy="-1.315"/>
<feGaussianBlur stdDeviation="0.657"/>
<feComposite in2="hardAlpha" operator="arithmetic" k2="-1" k3="1"/>
<feColorMatrix type="matrix" values="0 0 0 0 1 0 0 0 0 1 0 0 0 0 1 0 0 0 0.29 0"/>
<feBlend mode="normal" in2="shape" result="effect2_innerShadow_698_5961"/>
</filter>
<filter id="filter5_d_698_5961" x="372" y="19" width="202" height="202" filterUnits="userSpaceOnUse" color-interpolation-filters="sRGB">
<feFlood flood-opacity="0" result="BackgroundImageFix"/>
<feColorMatrix in="SourceAlpha" type="matrix" values="0 0 0 0 0 0 0 0 0 0 0 0 0 0 0 0 0 0 127 0" result="hardAlpha"/>
<feOffset dx="13" dy="4"/>
<feGaussianBlur stdDeviation="15"/>
<feComposite in2="hardAlpha" operator="out"/>
<feColorMatrix type="matrix" values="0 0 0 0 0 0 0 0 0 0 0 0 0 0 0 0 0 0 0.25 0"/>
<feBlend mode="normal" in2="BackgroundImageFix" result="effect1_dropShadow_698_5961"/>
<feBlend mode="normal" in="SourceGraphic" in2="effect1_dropShadow_698_5961" result="shape"/>
</filter>
<filter id="filter6_d_698_5961" x="334" y="9" width="202" height="202" filterUnits="userSpaceOnUse" color-interpolation-filters="sRGB">
<feFlood flood-opacity="0" result="BackgroundImageFix"/>
<feColorMatrix in="SourceAlpha" type="matrix" values="0 0 0 0 0 0 0 0 0 0 0 0 0 0 0 0 0 0 127 0" result="hardAlpha"/>
<feOffset dx="13" dy="4"/>
<feGaussianBlur stdDeviation="15"/>
<feComposite in2="hardAlpha" operator="out"/>
<feColorMatrix type="matrix" values="0 0 0 0 0 0 0 0 0 0 0 0 0 0 0 0 0 0 0.25 0"/>
<feBlend mode="normal" in2="BackgroundImageFix" result="effect1_dropShadow_698_5961"/>
<feBlend mode="normal" in="SourceGraphic" in2="effect1_dropShadow_698_5961" result="shape"/>
</filter>
<filter id="filter7_i_698_5961" x="383" y="61.1045" width="89.8027" height="90.6768" filterUnits="userSpaceOnUse" color-interpolation-filters="sRGB">
<feFlood flood-opacity="0" result="BackgroundImageFix"/>
<feBlend mode="normal" in="SourceGraphic" in2="BackgroundImageFix" result="shape"/>
<feColorMatrix in="SourceAlpha" type="matrix" values="0 0 0 0 0 0 0 0 0 0 0 0 0 0 0 0 0 0 127 0" result="hardAlpha"/>
<feOffset dx="4" dy="2"/>
<feGaussianBlur stdDeviation="8.7"/>
<feComposite in2="hardAlpha" operator="arithmetic" k2="-1" k3="1"/>
<feColorMatrix type="matrix" values="0 0 0 0 0 0 0 0 0 0 0 0 0 0 0 0 0 0 0.44 0"/>
<feBlend mode="normal" in2="shape" result="effect1_innerShadow_698_5961"/>
</filter>
<filter id="filter8_d_698_5961" x="0" y="19" width="202" height="202" filterUnits="userSpaceOnUse" color-interpolation-filters="sRGB">
<feFlood flood-opacity="0" result="BackgroundImageFix"/>
<feColorMatrix in="SourceAlpha" type="matrix" values="0 0 0 0 0 0 0 0 0 0 0 0 0 0 0 0 0 0 127 0" result="hardAlpha"/>
<feOffset dx="-13" dy="4"/>
<feGaussianBlur stdDeviation="15"/>
<feComposite in2="hardAlpha" operator="out"/>
<feColorMatrix type="matrix" values="0 0 0 0 0 0 0 0 0 0 0 0 0 0 0 0 0 0 0.25 0"/>
<feBlend mode="normal" in2="BackgroundImageFix" result="effect1_dropShadow_698_5961"/>
<feBlend mode="normal" in="SourceGraphic" in2="effect1_dropShadow_698_5961" result="shape"/>
</filter>
<filter id="filter9_d_698_5961" x="38.5" y="8.5" width="203" height="203" filterUnits="userSpaceOnUse" color-interpolation-filters="sRGB">
<feFlood flood-opacity="0" result="BackgroundImageFix"/>
<feColorMatrix in="SourceAlpha" type="matrix" values="0 0 0 0 0 0 0 0 0 0 0 0 0 0 0 0 0 0 127 0" result="hardAlpha"/>
<feOffset dx="-13" dy="4"/>
<feGaussianBlur stdDeviation="15"/>
<feComposite in2="hardAlpha" operator="out"/>
<feColorMatrix type="matrix" values="0 0 0 0 0 0 0 0 0 0 0 0 0 0 0 0 0 0 0.25 0"/>
<feBlend mode="normal" in2="BackgroundImageFix" result="effect1_dropShadow_698_5961"/>
<feBlend mode="normal" in="SourceGraphic" in2="effect1_dropShadow_698_5961" result="shape"/>
</filter>
<filter id="filter10_f_698_5961" x="-45" y="-79" width="459" height="457" filterUnits="userSpaceOnUse" color-interpolation-filters="sRGB">
<feFlood flood-opacity="0" result="BackgroundImageFix"/>
<feBlend mode="normal" in="SourceGraphic" in2="BackgroundImageFix" result="shape"/>
<feGaussianBlur stdDeviation="75" result="effect1_foregroundBlur_698_5961"/>
</filter>
<radialGradient id="paint0_radial_698_5961" cx="0" cy="0" r="1" gradientUnits="userSpaceOnUse" gradientTransform="translate(287 105.195) rotate(90) scale(65 60.6473)">
<stop offset="0.096" stop-color="#0EA5E9"/>
<stop offset="0.25" stop-color="#38BDF8"/>
<stop offset="0.81" stop-color="#0284C7" stop-opacity="0"/>
</radialGradient>
<radialGradient id="paint1_radial_698_5961" cx="0" cy="0" r="1" gradientUnits="userSpaceOnUse" gradientTransform="translate(324.225 95.0378) rotate(113.356) scale(162.2)">
<stop stop-color="#E0F2FE"/>
<stop offset="0.475" stop-color="#0369A1"/>
<stop offset="1" stop-color="#0C4A6E"/>
</radialGradient>
<linearGradient id="paint2_linear_698_5961" x1="173.975" y1="104.667" x2="394" y2="104.667" gradientUnits="userSpaceOnUse">
<stop offset="0.01" stop-color="#0EA5E9" stop-opacity="0"/>
<stop offset="0.175" stop-color="#0EA5E9"/>
<stop offset="0.49" stop-color="#7DD3FC"/>
<stop offset="0.825" stop-color="#0369A1"/>
<stop offset="1" stop-color="#0EA5E9" stop-opacity="0"/>
</linearGradient>
<radialGradient id="paint3_radial_698_5961" cx="0" cy="0" r="1" gradientUnits="userSpaceOnUse" gradientTransform="translate(319.211 110.747) rotate(160.448) scale(57.2147 49.5754)">
<stop stop-color="#E0F2FE"/>
<stop offset="0.475" stop-color="#0369A1"/>
<stop offset="1" stop-color="#0C4A6E"/>
</radialGradient>
<linearGradient id="paint4_linear_698_5961" x1="286.493" y1="95.1953" x2="286.493" y2="116.182" gradientUnits="userSpaceOnUse">
<stop stop-color="#1B1B1B"/>
<stop offset="1" stop-color="#282828"/>
</linearGradient>
<radialGradient id="paint5_radial_698_5961" cx="0" cy="0" r="1" gradientUnits="userSpaceOnUse" gradientTransform="translate(292.503 104.049) rotate(113.356) scale(26.1853)">
<stop stop-color="#E0F2FE"/>
<stop offset="0.475" stop-color="#0369A1"/>
<stop offset="1" stop-color="#0C4A6E"/>
</radialGradient>
<radialGradient id="paint6_radial_698_5961" cx="0" cy="0" r="1" gradientUnits="userSpaceOnUse" gradientTransform="translate(292.266 104.115) rotate(113.356) scale(25.146 25.146)">
<stop stop-color="#E0F2FE"/>
<stop offset="0.475" stop-color="#0369A1"/>
<stop offset="1" stop-color="#0C4A6E"/>
</radialGradient>
<radialGradient id="paint7_radial_698_5961" cx="0" cy="0" r="1" gradientUnits="userSpaceOnUse" gradientTransform="translate(290.299 104.048) rotate(140.571) scale(10.7193 8.90885)">
<stop stop-color="white"/>
<stop offset="1" stop-color="#666666"/>
</radialGradient>
<radialGradient id="paint8_radial_698_5961" cx="0" cy="0" r="1" gradientUnits="userSpaceOnUse" gradientTransform="translate(289.414 105.07) rotate(116.705) scale(11.7777 12.9912)">
<stop stop-color="#E0F2FE"/>
<stop offset="0.475" stop-color="#0369A1"/>
<stop offset="1" stop-color="#0C4A6E"/>
</radialGradient>
<radialGradient id="paint9_radial_698_5961" cx="0" cy="0" r="1" gradientUnits="userSpaceOnUse" gradientTransform="translate(233.752 100.97) rotate(94.643) scale(6.75766 5.27045)">
<stop stop-color="#7DD3FC"/>
<stop offset="1" stop-color="#0369A1"/>
</radialGradient>
<radialGradient id="paint10_radial_698_5961" cx="0" cy="0" r="1" gradientUnits="userSpaceOnUse" gradientTransform="translate(234.145 103.883) rotate(113.356) scale(4.99077)">
<stop stop-color="#E0F2FE"/>
<stop offset="0.475" stop-color="#0369A1"/>
<stop offset="1" stop-color="#0C4A6E"/>
</radialGradient>
<radialGradient id="paint11_radial_698_5961" cx="0" cy="0" r="1" gradientUnits="userSpaceOnUse" gradientTransform="translate(343.752 100.97) rotate(94.643) scale(6.75766 5.27045)">
<stop stop-color="#7DD3FC"/>
<stop offset="1" stop-color="#0369A1"/>
</radialGradient>
<radialGradient id="paint12_radial_698_5961" cx="0" cy="0" r="1" gradientUnits="userSpaceOnUse" gradientTransform="translate(344.145 103.883) rotate(113.356) scale(4.99077)">
<stop stop-color="#E0F2FE"/>
<stop offset="0.475" stop-color="#0369A1"/>
<stop offset="1" stop-color="#0C4A6E"/>
</radialGradient>
<radialGradient id="paint13_radial_698_5961" cx="0" cy="0" r="1" gradientUnits="userSpaceOnUse" gradientTransform="translate(498 52.3002) rotate(89.5653) scale(190.073 182.064)">
<stop stop-color="#353535"/>
<stop offset="1" stop-color="#1C1C1C" stop-opacity="0.66"/>
</radialGradient>
<radialGradient id="paint14_radial_698_5961" cx="0" cy="0" r="1" gradientUnits="userSpaceOnUse" gradientTransform="translate(460 42.3002) rotate(89.5653) scale(190.073 182.064)">
<stop stop-color="#353535"/>
<stop offset="1" stop-color="#1C1C1C" stop-opacity="0.66"/>
</radialGradient>
<radialGradient id="paint15_radial_698_5961" cx="0" cy="0" r="1" gradientUnits="userSpaceOnUse" gradientTransform="translate(422 32.2642) rotate(89.5657) scale(190.182 182.064)">
<stop stop-color="#353535"/>
<stop offset="1" stop-color="#1C1C1C" stop-opacity="0.66"/>
</radialGradient>
<radialGradient id="paint16_radial_698_5961" cx="0" cy="0" r="1" gradientUnits="userSpaceOnUse" gradientTransform="translate(418.5 58.4639) rotate(90) scale(151.536 120.884)">
<stop stop-color="#4C4A4A"/>
<stop offset="1" stop-color="#262626"/>
</radialGradient>
<radialGradient id="paint17_radial_698_5961" cx="0" cy="0" r="1" gradientUnits="userSpaceOnUse" gradientTransform="translate(454.5 128.5) rotate(-135) scale(20.5061)">
<stop stop-color="#0369A1" stop-opacity="0.82"/>
<stop offset="1" stop-color="#0C4A6E" stop-opacity="0.53"/>
</radialGradient>
<radialGradient id="paint18_radial_698_5961" cx="0" cy="0" r="1" gradientUnits="userSpaceOnUse" gradientTransform="translate(418.5 110.5) rotate(-135) scale(20.5061)">
<stop stop-color="#262626" stop-opacity="0.82"/>
<stop offset="1" stop-color="#525252" stop-opacity="0.53"/>
</radialGradient>
<radialGradient id="paint19_radial_698_5961" cx="0" cy="0" r="1" gradientUnits="userSpaceOnUse" gradientTransform="translate(82 52.3002) rotate(89.5653) scale(190.073 182.064)">
<stop stop-color="#353535"/>
<stop offset="1" stop-color="#1C1C1C" stop-opacity="0.66"/>
</radialGradient>
<radialGradient id="paint20_radial_698_5961" cx="0" cy="0" r="1" gradientUnits="userSpaceOnUse" gradientTransform="translate(114 42.3002) rotate(89.5653) scale(190.073 182.064)">
<stop stop-color="#353535"/>
<stop offset="1" stop-color="#1C1C1C" stop-opacity="0.66"/>
</radialGradient>
<radialGradient id="paint21_radial_698_5961" cx="0" cy="0" r="1" gradientUnits="userSpaceOnUse" gradientTransform="translate(41.8267 -26.1597) rotate(52.6048) scale(337.028 78.6127)">
<stop stop-color="#0EA5E9" stop-opacity="0"/>
<stop offset="0.475" stop-color="#0284C7" stop-opacity="0.73"/>
<stop offset="1" stop-color="#0284C7" stop-opacity="0"/>
</radialGradient>
<radialGradient id="paint22_radial_698_5961" cx="0" cy="0" r="1" gradientUnits="userSpaceOnUse" gradientTransform="translate(149.5 58.4639) rotate(90) scale(151.536 120.884)">
<stop stop-color="#4C4A4A"/>
<stop offset="1" stop-color="#262626"/>
</radialGradient>
<radialGradient id="paint23_radial_698_5961" cx="0" cy="0" r="1" gradientUnits="userSpaceOnUse" gradientTransform="translate(184.5 149.5) rotate(90) scale(78.5 74.1763)">
<stop offset="0.096" stop-color="#0EA5E9"/>
<stop offset="0.25" stop-color="#38BDF8"/>
<stop offset="0.81" stop-color="#0284C7" stop-opacity="0"/>
</radialGradient>
<clipPath id="clip0_698_5961">
<rect x="82" y="35" width="142" height="142" rx="14" fill="white"/>
</clipPath>
</defs>
</svg>
