<svg width="398" height="314" viewBox="0 0 398 314" fill="none" xmlns="http://www.w3.org/2000/svg">
<g clip-path="url(#clip0_698_5707)">
<rect x="219" width="179" height="138" rx="14" fill="#1F1F1F"/>
<path d="M240.998 117V98.8182H247.656C248.946 98.8182 250.014 99.0312 250.861 99.4574C251.707 99.8776 252.34 100.449 252.761 101.171C253.181 101.887 253.391 102.695 253.391 103.594C253.391 104.352 253.252 104.991 252.974 105.512C252.696 106.027 252.323 106.441 251.855 106.755C251.393 107.063 250.884 107.288 250.328 107.43V107.607C250.932 107.637 251.521 107.832 252.095 108.193C252.675 108.548 253.154 109.054 253.533 109.711C253.912 110.368 254.101 111.167 254.101 112.108C254.101 113.038 253.882 113.872 253.444 114.612C253.012 115.346 252.343 115.929 251.438 116.361C250.532 116.787 249.375 117 247.967 117H240.998ZM243.741 114.647H247.7C249.014 114.647 249.955 114.393 250.523 113.884C251.092 113.375 251.376 112.739 251.376 111.975C251.376 111.401 251.231 110.874 250.941 110.395C250.651 109.915 250.236 109.534 249.698 109.25C249.165 108.966 248.532 108.824 247.798 108.824H243.741V114.647ZM243.741 106.684H247.416C248.032 106.684 248.585 106.566 249.076 106.329C249.574 106.092 249.967 105.761 250.257 105.335C250.553 104.902 250.701 104.393 250.701 103.808C250.701 103.056 250.438 102.426 249.911 101.917C249.384 101.408 248.576 101.153 247.487 101.153H243.741V106.684ZM265.78 111.345V103.364H268.443V117H265.833V114.638H265.691C265.378 115.366 264.874 115.973 264.182 116.458C263.495 116.938 262.64 117.178 261.616 117.178C260.74 117.178 259.965 116.985 259.29 116.6C258.622 116.21 258.095 115.633 257.71 114.869C257.331 114.106 257.142 113.162 257.142 112.037V103.364H259.796V111.718C259.796 112.647 260.054 113.387 260.569 113.937C261.084 114.488 261.752 114.763 262.575 114.763C263.072 114.763 263.566 114.638 264.058 114.39C264.555 114.141 264.966 113.766 265.292 113.262C265.623 112.759 265.786 112.12 265.78 111.345ZM273.688 122.114C273.291 122.114 272.93 122.081 272.605 122.016C272.279 121.957 272.037 121.892 271.877 121.821L272.516 119.646C273.001 119.776 273.433 119.832 273.812 119.814C274.191 119.797 274.525 119.654 274.815 119.388C275.111 119.122 275.372 118.687 275.597 118.083L275.925 117.178L270.936 103.364H273.777L277.23 113.946H277.372L280.826 103.364H283.676L278.056 118.82C277.795 119.53 277.464 120.131 277.062 120.622C276.659 121.119 276.18 121.492 275.623 121.741C275.067 121.989 274.422 122.114 273.688 122.114ZM291.583 117.275C290.24 117.275 289.083 116.988 288.112 116.414C287.147 115.834 286.402 115.02 285.875 113.973C285.354 112.919 285.094 111.685 285.094 110.271C285.094 108.874 285.354 107.643 285.875 106.577C286.402 105.512 287.136 104.681 288.077 104.083C289.024 103.485 290.13 103.186 291.397 103.186C292.166 103.186 292.912 103.313 293.634 103.568C294.356 103.822 295.004 104.222 295.578 104.766C296.153 105.311 296.605 106.018 296.937 106.888C297.268 107.752 297.434 108.803 297.434 110.04V110.981H286.594V108.992H294.833C294.833 108.294 294.691 107.675 294.407 107.137C294.123 106.592 293.723 106.163 293.208 105.849C292.699 105.536 292.101 105.379 291.415 105.379C290.669 105.379 290.018 105.562 289.462 105.929C288.911 106.29 288.485 106.764 288.183 107.35C287.887 107.93 287.739 108.56 287.739 109.241V110.794C287.739 111.706 287.899 112.481 288.219 113.12C288.544 113.76 288.997 114.248 289.577 114.585C290.157 114.917 290.835 115.082 291.61 115.082C292.113 115.082 292.572 115.011 292.986 114.869C293.4 114.721 293.759 114.502 294.06 114.212C294.362 113.922 294.593 113.564 294.753 113.138L297.265 113.591C297.064 114.331 296.703 114.979 296.182 115.535C295.667 116.086 295.019 116.515 294.238 116.822C293.463 117.124 292.578 117.275 291.583 117.275ZM300.379 117V103.364H302.945V105.53H303.087C303.335 104.796 303.773 104.219 304.401 103.799C305.034 103.373 305.75 103.159 306.549 103.159C306.715 103.159 306.91 103.165 307.135 103.177C307.366 103.189 307.547 103.204 307.677 103.222V105.761C307.57 105.731 307.381 105.699 307.109 105.663C306.836 105.622 306.564 105.601 306.292 105.601C305.664 105.601 305.105 105.734 304.614 106C304.129 106.261 303.744 106.625 303.46 107.092C303.176 107.554 303.034 108.081 303.034 108.673V117H300.379Z" fill="white"/>
<g filter="url(#filter0_f_698_5707)">
<ellipse cx="308.5" cy="38" rx="31.5" ry="38" fill="white" fill-opacity="0.45"/>
</g>
<path d="M257.75 38.9219C252.797 38.9219 248.766 34.8906 248.766 29.9375C248.766 24.9844 252.797 20.9531 257.75 20.9531C262.703 20.9531 266.734 24.9844 266.734 29.9375C266.734 34.8906 262.703 38.9219 257.75 38.9219ZM257.75 23.2969C254.094 23.2969 251.109 26.2812 251.109 29.9375C251.109 33.5938 254.094 36.5781 257.75 36.5781C261.406 36.5781 264.391 33.5938 264.391 29.9375C264.391 26.2812 261.406 23.2969 257.75 23.2969Z" fill="#A3A3A3"/>
<path d="M244.328 54.5469C243.688 54.5469 243.156 54.0156 243.156 53.375C243.156 46.7031 249.703 41.2656 257.75 41.2656C259.328 41.2656 260.875 41.4688 262.375 41.8907C263 42.0625 263.359 42.7031 263.188 43.3281C263.016 43.9531 262.375 44.3125 261.75 44.1407C260.469 43.7813 259.125 43.6094 257.75 43.6094C251 43.6094 245.5 47.9844 245.5 53.375C245.5 54.0156 244.969 54.5469 244.328 54.5469Z" fill="#A3A3A3"/>
<path d="M267.125 54.5469C264.531 54.5469 262.094 53.1719 260.781 50.9375C260.078 49.8125 259.703 48.4844 259.703 47.125C259.703 44.8438 260.719 42.7343 262.484 41.3281C263.797 40.2812 265.453 39.7031 267.125 39.7031C271.219 39.7031 274.547 43.0313 274.547 47.125C274.547 48.4844 274.172 49.8125 273.469 50.9531C273.078 51.6094 272.578 52.2031 271.984 52.7031C270.687 53.8906 268.953 54.5469 267.125 54.5469ZM267.125 42.0469C265.969 42.0469 264.875 42.4375 263.953 43.1718C262.75 44.125 262.047 45.5781 262.047 47.125C262.047 48.0469 262.297 48.9531 262.781 49.7343C263.688 51.2656 265.359 52.2031 267.125 52.2031C268.359 52.2031 269.547 51.75 270.453 50.9375C270.859 50.5938 271.203 50.1875 271.453 49.75C271.953 48.9531 272.203 48.0469 272.203 47.125C272.203 44.3281 269.922 42.0469 267.125 42.0469Z" fill="#A3A3A3"/>
<path d="M266.232 49.8437C265.936 49.8437 265.639 49.7344 265.404 49.5L263.857 47.9531C263.404 47.5 263.404 46.7499 263.857 46.2968C264.311 45.8437 265.061 45.8437 265.514 46.2968L266.264 47.0468L268.764 44.7343C269.232 44.2968 269.982 44.3281 270.42 44.7968C270.857 45.2656 270.826 46.0156 270.357 46.4531L267.029 49.5312C266.795 49.7343 266.514 49.8437 266.232 49.8437Z" fill="#A3A3A3"/>
</g>
<g clip-path="url(#clip1_698_5707)">
<rect y="176" width="179" height="138" rx="14" fill="#1F1F1F"/>
<path d="M38.5 223.906C37.8679 223.906 37.3438 223.382 37.3438 222.75V218.125C37.3438 217.493 37.8679 216.969 38.5 216.969C39.1321 216.969 39.6562 217.493 39.6562 218.125V222.75C39.6562 223.382 39.1321 223.906 38.5 223.906Z" fill="#0369A1"/>
<path d="M47.1356 229.779H29.8689C27.0631 229.779 24.5039 227.621 24.0414 224.862L21.991 212.574C21.6518 210.663 22.5923 208.212 24.1185 206.994L34.8023 198.437C36.8681 196.772 40.121 196.788 42.2023 198.453L52.886 206.994C54.3968 208.212 55.3218 210.663 55.0135 212.574L52.9631 224.846C52.5006 227.575 49.8798 229.779 47.1356 229.779ZM38.4868 199.517C37.6698 199.517 36.8527 199.763 36.2514 200.241L25.5677 208.813C24.7043 209.507 24.0877 211.11 24.2727 212.204L26.3231 224.476C26.6006 226.095 28.2193 227.467 29.8689 227.467H47.1356C48.7852 227.467 50.4039 226.095 50.6814 224.461L52.7318 212.189C52.9014 211.11 52.2848 209.476 51.4368 208.797L40.7531 200.257C40.1364 199.763 39.3039 199.517 38.4868 199.517Z" fill="#0369A1"/>
<path d="M31.9141 279.594C31.8194 278.754 31.4287 278.103 30.7422 277.641C30.0556 277.174 29.1915 276.94 28.1499 276.94C27.4041 276.94 26.759 277.058 26.2145 277.295C25.67 277.526 25.2468 277.846 24.945 278.254C24.649 278.656 24.5011 279.115 24.5011 279.63C24.5011 280.062 24.6017 280.435 24.8029 280.749C25.0101 281.062 25.2794 281.326 25.6108 281.539C25.9482 281.746 26.3092 281.92 26.6939 282.062C27.0786 282.199 27.4485 282.311 27.8036 282.4L29.5792 282.862C30.1592 283.004 30.754 283.196 31.3636 283.439C31.9732 283.681 32.5385 284.001 33.0593 284.397C33.5801 284.794 34.0004 285.285 34.32 285.871C34.6455 286.457 34.8082 287.158 34.8082 287.975C34.8082 289.005 34.5419 289.919 34.0092 290.718C33.4825 291.517 32.716 292.148 31.7099 292.609C30.7096 293.071 29.4993 293.302 28.0788 293.302C26.7176 293.302 25.5398 293.086 24.5455 292.654C23.5511 292.222 22.7728 291.609 22.2106 290.816C21.6483 290.017 21.3376 289.07 21.2784 287.975H24.0305C24.0838 288.632 24.2969 289.18 24.6697 289.618C25.0485 290.05 25.5309 290.372 26.1168 290.585C26.7087 290.792 27.3568 290.896 28.0611 290.896C28.8364 290.896 29.5259 290.775 30.1296 290.532C30.7392 290.283 31.2186 289.94 31.5678 289.502C31.917 289.058 32.0916 288.54 32.0916 287.949C32.0916 287.41 31.9377 286.969 31.63 286.626C31.3281 286.282 30.9168 285.998 30.396 285.773C29.881 285.549 29.2981 285.35 28.647 285.179L26.4986 284.593C25.0426 284.196 23.8885 283.613 23.0362 282.844C22.1899 282.074 21.7667 281.056 21.7667 279.79C21.7667 278.742 22.0508 277.828 22.619 277.047C23.1871 276.265 23.9566 275.659 24.9272 275.227C25.8978 274.789 26.9928 274.57 28.212 274.57C29.4431 274.57 30.5291 274.786 31.4702 275.218C32.4171 275.65 33.1629 276.245 33.7074 277.002C34.2519 277.754 34.536 278.618 34.5597 279.594H31.9141ZM43.7504 293.275C42.4069 293.275 41.2499 292.988 40.2792 292.414C39.3145 291.834 38.5687 291.02 38.042 289.973C37.5212 288.919 37.2607 287.685 37.2607 286.271C37.2607 284.874 37.5212 283.643 38.042 282.577C38.5687 281.512 39.3026 280.681 40.2437 280.083C41.1907 279.485 42.2974 279.186 43.564 279.186C44.3334 279.186 45.0792 279.313 45.8012 279.568C46.5233 279.822 47.1714 280.222 47.7455 280.766C48.3196 281.311 48.7723 282.018 49.1038 282.888C49.4352 283.752 49.6009 284.803 49.6009 286.04V286.981H38.7611V284.992H46.9997C46.9997 284.294 46.8577 283.675 46.5736 283.137C46.2895 282.592 45.89 282.163 45.3751 281.849C44.8661 281.536 44.2683 281.379 43.5818 281.379C42.836 281.379 42.185 281.562 41.6286 281.929C41.0782 282.29 40.6521 282.764 40.3502 283.35C40.0543 283.93 39.9063 284.56 39.9063 285.241V286.794C39.9063 287.706 40.0661 288.481 40.3857 289.12C40.7113 289.76 41.164 290.248 41.7441 290.585C42.3241 290.917 43.0017 291.082 43.7771 291.082C44.2802 291.082 44.7388 291.011 45.1531 290.869C45.5674 290.721 45.9255 290.502 46.2274 290.212C46.5292 289.922 46.76 289.564 46.9198 289.138L49.4323 289.591C49.231 290.331 48.87 290.979 48.3492 291.535C47.8343 292.086 47.1862 292.515 46.4049 292.822C45.6296 293.124 44.7448 293.275 43.7504 293.275ZM55.2006 274.818V293H52.5462V274.818H55.2006ZM61.4262 274.818V293H58.7718V274.818H61.4262ZM70.8745 293.275C69.531 293.275 68.3739 292.988 67.4032 292.414C66.4385 291.834 65.6928 291.02 65.166 289.973C64.6452 288.919 64.3848 287.685 64.3848 286.271C64.3848 284.874 64.6452 283.643 65.166 282.577C65.6928 281.512 66.4267 280.681 67.3677 280.083C68.3147 279.485 69.4215 279.186 70.688 279.186C71.4574 279.186 72.2032 279.313 72.9252 279.568C73.6473 279.822 74.2954 280.222 74.8695 280.766C75.4436 281.311 75.8964 282.018 76.2278 282.888C76.5592 283.752 76.725 284.803 76.725 286.04V286.981H65.8851V284.992H74.1238C74.1238 284.294 73.9817 283.675 73.6976 283.137C73.4135 282.592 73.014 282.163 72.4991 281.849C71.9901 281.536 71.3923 281.379 70.7058 281.379C69.96 281.379 69.309 281.562 68.7527 281.929C68.2022 282.29 67.7761 282.764 67.4743 283.35C67.1783 283.93 67.0304 284.56 67.0304 285.241V286.794C67.0304 287.706 67.1902 288.481 67.5098 289.12C67.8353 289.76 68.2881 290.248 68.8681 290.585C69.4481 290.917 70.1258 291.082 70.9011 291.082C71.4042 291.082 71.8629 291.011 72.2772 290.869C72.6915 290.721 73.0495 290.502 73.3514 290.212C73.6532 289.922 73.8841 289.564 74.0439 289.138L76.5563 289.591C76.3551 290.331 75.994 290.979 75.4732 291.535C74.9583 292.086 74.3102 292.515 73.5289 292.822C72.7536 293.124 71.8688 293.275 70.8745 293.275ZM79.6702 293V279.364H82.2359V281.53H82.3779C82.6265 280.796 83.0645 280.219 83.6919 279.799C84.3251 279.373 85.0413 279.159 85.8403 279.159C86.006 279.159 86.2013 279.165 86.4262 279.177C86.657 279.189 86.8376 279.204 86.9678 279.222V281.761C86.8612 281.731 86.6718 281.699 86.3996 281.663C86.1273 281.622 85.8551 281.601 85.5828 281.601C84.9555 281.601 84.3962 281.734 83.9049 282C83.4196 282.261 83.0349 282.625 82.7508 283.092C82.4667 283.554 82.3247 284.081 82.3247 284.673V293H79.6702Z" fill="white"/>
<g filter="url(#filter1_f_698_5707)">
<ellipse cx="89.5" cy="214" rx="31.5" ry="38" fill="white" fill-opacity="0.45"/>
</g>
</g>
<rect x="293" y="122" width="32" height="31" rx="15.5" fill="white" fill-opacity="0.05"/>
<rect x="293.75" y="122.75" width="30.5" height="29.5" rx="14.75" stroke="url(#paint0_linear_698_5707)" stroke-opacity="0.8" stroke-width="1.5"/>
<path d="M307.598 139.044H305.068C304.838 139.044 304.671 138.944 304.568 138.744C304.464 138.543 304.479 138.351 304.613 138.167L309.385 131.267C309.472 131.145 309.579 131.065 309.707 131.026C309.835 130.986 309.971 130.992 310.114 131.044C310.257 131.096 310.36 131.182 310.423 131.301C310.487 131.421 310.51 131.552 310.493 131.693L309.897 136.505H312.937C313.174 136.505 313.342 136.613 313.441 136.83C313.541 137.046 313.514 137.246 313.361 137.43L308.051 143.779C307.96 143.886 307.851 143.955 307.724 143.985C307.595 144.014 307.469 144.001 307.344 143.945C307.219 143.89 307.123 143.806 307.057 143.694C306.992 143.582 306.968 143.455 306.985 143.313L307.598 139.044Z" fill="white" fill-opacity="0.65"/>
<circle cx="309" cy="161" r="3" fill="#0369A1"/>
<path d="M309 169V211C309 230.882 292.882 247 273 247H228" stroke="url(#paint1_linear_698_5707)" stroke-width="1.5" stroke-linecap="round" stroke-linejoin="round" stroke-dasharray="4 4"/>
<g filter="url(#filter2_i_698_5707)">
<path d="M196.137 244.076C194.92 244.567 194.803 246.244 195.939 246.901L218.914 260.165C220.332 260.984 221.97 259.513 221.309 258.015L216.765 247.741C216.63 247.435 216.568 247.1 216.586 246.766C216.604 246.431 216.701 246.106 216.869 245.816L222.026 236.883C222.83 235.49 221.418 233.866 219.925 234.468L196.137 244.076Z" fill="#0369A1"/>
</g>
<defs>
<filter id="filter0_f_698_5707" x="177" y="-100" width="263" height="276" filterUnits="userSpaceOnUse" color-interpolation-filters="sRGB">
<feFlood flood-opacity="0" result="BackgroundImageFix"/>
<feBlend mode="normal" in="SourceGraphic" in2="BackgroundImageFix" result="shape"/>
<feGaussianBlur stdDeviation="50" result="effect1_foregroundBlur_698_5707"/>
</filter>
<filter id="filter1_f_698_5707" x="-42" y="76" width="263" height="276" filterUnits="userSpaceOnUse" color-interpolation-filters="sRGB">
<feFlood flood-opacity="0" result="BackgroundImageFix"/>
<feBlend mode="normal" in="SourceGraphic" in2="BackgroundImageFix" result="shape"/>
<feGaussianBlur stdDeviation="50" result="effect1_foregroundBlur_698_5707"/>
</filter>
<filter id="filter2_i_698_5707" x="189" y="222" width="49.5293" height="50.5283" filterUnits="userSpaceOnUse" color-interpolation-filters="sRGB">
<feFlood flood-opacity="0" result="BackgroundImageFix"/>
<feBlend mode="normal" in="SourceGraphic" in2="BackgroundImageFix" result="shape"/>
<feColorMatrix in="SourceAlpha" type="matrix" values="0 0 0 0 0 0 0 0 0 0 0 0 0 0 0 0 0 0 127 0" result="hardAlpha"/>
<feOffset dx="3" dy="4"/>
<feGaussianBlur stdDeviation="4"/>
<feComposite in2="hardAlpha" operator="arithmetic" k2="-1" k3="1"/>
<feColorMatrix type="matrix" values="0 0 0 0 1 0 0 0 0 1 0 0 0 0 1 0 0 0 0.3 0"/>
<feBlend mode="normal" in2="shape" result="effect1_innerShadow_698_5707"/>
</filter>
<linearGradient id="paint0_linear_698_5707" x1="293" y1="137.5" x2="325" y2="137.5" gradientUnits="userSpaceOnUse">
<stop stop-color="#0369A1"/>
<stop offset="1" stop-color="#38BDF8"/>
</linearGradient>
<linearGradient id="paint1_linear_698_5707" x1="309" y1="160.884" x2="213.221" y2="225.567" gradientUnits="userSpaceOnUse">
<stop stop-color="#0369A1"/>
<stop offset="0.457635" stop-color="#FED9C6"/>
<stop offset="1" stop-color="#FF8546"/>
</linearGradient>
<clipPath id="clip0_698_5707">
<rect width="179" height="138" fill="white" transform="translate(219)"/>
</clipPath>
<clipPath id="clip1_698_5707">
<rect width="179" height="138" fill="white" transform="translate(0 176)"/>
</clipPath>
</defs>
</svg>
