<svg width="430" height="273" viewBox="0 0 430 273" fill="none" xmlns="http://www.w3.org/2000/svg">
<g clip-path="url(#clip0_698_5649)">
<rect width="363" height="75" rx="14" fill="url(#paint0_linear_698_5649)"/>
<g filter="url(#filter0_f_698_5649)">
<ellipse cx="223" cy="7.5" rx="72" ry="6.5" fill="white" fill-opacity="0.4"/>
</g>
<path d="M83.22 47.448C81.3347 47.448 79.72 47.0093 78.376 46.132C77.032 45.236 76.0053 44.0133 75.296 42.464C74.5867 40.896 74.232 39.104 74.232 37.088C74.232 35.0907 74.5867 33.308 75.296 31.74C76.024 30.172 77.0693 28.94 78.432 28.044C79.7947 27.1293 81.428 26.672 83.332 26.672C84.956 26.672 86.328 26.9613 87.448 27.54C88.5867 28.1187 89.4827 28.912 90.136 29.92C90.808 30.928 91.2747 32.076 91.536 33.364L88.372 33.532C88.148 32.3187 87.644 31.3387 86.86 30.592C86.076 29.8267 84.9 29.444 83.332 29.444C81.9507 29.444 80.8213 29.7893 79.944 30.48C79.0667 31.1707 78.4133 32.0947 77.984 33.252C77.5733 34.4093 77.368 35.688 77.368 37.088C77.368 38.544 77.5733 39.8413 77.984 40.98C78.4133 42.1187 79.0667 43.024 79.944 43.696C80.84 44.3493 81.9787 44.676 83.36 44.676C84.4427 44.676 85.376 44.4427 86.16 43.976C86.944 43.5093 87.5507 42.8747 87.98 42.072C88.428 41.2693 88.6707 40.3827 88.708 39.412H83.388V36.864H91.592V47H89.52L89.324 42.52L89.716 42.856C89.5107 43.752 89.0907 44.5453 88.456 45.236C87.8213 45.9267 87.0467 46.468 86.132 46.86C85.236 47.252 84.2653 47.448 83.22 47.448ZM95.0609 47V32.104H97.7769L97.8889 36.052L97.6369 35.968C97.8423 34.624 98.2529 33.644 98.8689 33.028C99.5036 32.412 100.353 32.104 101.417 32.104H102.845V34.764H101.417C100.67 34.764 100.045 34.8853 99.5409 35.128C99.0369 35.3707 98.6543 35.744 98.3929 36.248C98.1503 36.752 98.0289 37.4053 98.0289 38.208V47H95.0609ZM111.091 47.336C109.635 47.336 108.375 47.0187 107.311 46.384C106.266 45.7493 105.454 44.844 104.875 43.668C104.315 42.492 104.035 41.12 104.035 39.552C104.035 37.984 104.315 36.6213 104.875 35.464C105.454 34.288 106.266 33.3827 107.311 32.748C108.357 32.0947 109.589 31.768 111.007 31.768C112.351 31.768 113.537 32.0853 114.563 32.72C115.59 33.336 116.383 34.232 116.943 35.408C117.522 36.584 117.811 38.0027 117.811 39.664V40.42H107.115C107.19 41.876 107.573 42.968 108.263 43.696C108.973 44.424 109.925 44.788 111.119 44.788C111.997 44.788 112.725 44.5827 113.303 44.172C113.882 43.7613 114.283 43.2107 114.507 42.52L117.587 42.716C117.195 44.0973 116.421 45.2173 115.263 46.076C114.125 46.916 112.734 47.336 111.091 47.336ZM107.115 38.18H114.675C114.582 36.8547 114.199 35.8747 113.527 35.24C112.874 34.6053 112.034 34.288 111.007 34.288C109.943 34.288 109.066 34.624 108.375 35.296C107.703 35.9493 107.283 36.9107 107.115 38.18ZM126.951 47.336C125.495 47.336 124.235 47.0187 123.171 46.384C122.125 45.7493 121.313 44.844 120.735 43.668C120.175 42.492 119.895 41.12 119.895 39.552C119.895 37.984 120.175 36.6213 120.735 35.464C121.313 34.288 122.125 33.3827 123.171 32.748C124.216 32.0947 125.448 31.768 126.867 31.768C128.211 31.768 129.396 32.0853 130.423 32.72C131.449 33.336 132.243 34.232 132.803 35.408C133.381 36.584 133.671 38.0027 133.671 39.664V40.42H122.975C123.049 41.876 123.432 42.968 124.123 43.696C124.832 44.424 125.784 44.788 126.979 44.788C127.856 44.788 128.584 44.5827 129.163 44.172C129.741 43.7613 130.143 43.2107 130.367 42.52L133.447 42.716C133.055 44.0973 132.28 45.2173 131.123 46.076C129.984 46.916 128.593 47.336 126.951 47.336ZM122.975 38.18H130.535C130.441 36.8547 130.059 35.8747 129.387 35.24C128.733 34.6053 127.893 34.288 126.867 34.288C125.803 34.288 124.925 34.624 124.235 35.296C123.563 35.9493 123.143 36.9107 122.975 38.18ZM136.678 47V32.104H139.394L139.506 36.08L139.142 35.884C139.31 34.9133 139.627 34.1293 140.094 33.532C140.561 32.9347 141.13 32.496 141.802 32.216C142.474 31.9173 143.202 31.768 143.986 31.768C145.106 31.768 146.03 32.02 146.758 32.524C147.505 33.0093 148.065 33.6813 148.438 34.54C148.83 35.38 149.026 36.3413 149.026 37.424V47H146.058V38.32C146.058 37.4427 145.965 36.7053 145.778 36.108C145.591 35.5107 145.283 35.0533 144.854 34.736C144.425 34.4187 143.865 34.26 143.174 34.26C142.129 34.26 141.279 34.6053 140.626 35.296C139.973 35.9867 139.646 36.9947 139.646 38.32V47H136.678ZM160.338 47V27.12H163.362V36.696L161.906 35.632H174.002L172.546 36.696V27.12H175.57V47H172.546V37.312L174.002 38.376H161.906L163.362 37.312V47H160.338ZM185.931 47.336C184.513 47.336 183.271 47.0187 182.207 46.384C181.143 45.7493 180.322 44.844 179.743 43.668C179.165 42.492 178.875 41.12 178.875 39.552C178.875 37.9653 179.165 36.5933 179.743 35.436C180.322 34.2787 181.143 33.3827 182.207 32.748C183.271 32.0947 184.513 31.768 185.931 31.768C187.35 31.768 188.591 32.0947 189.655 32.748C190.719 33.3827 191.541 34.2787 192.119 35.436C192.698 36.5933 192.987 37.9653 192.987 39.552C192.987 41.12 192.698 42.492 192.119 43.668C191.541 44.844 190.719 45.7493 189.655 46.384C188.591 47.0187 187.35 47.336 185.931 47.336ZM185.931 44.76C187.201 44.76 188.181 44.3027 188.871 43.388C189.562 42.4547 189.907 41.176 189.907 39.552C189.907 37.928 189.562 36.6587 188.871 35.744C188.181 34.8107 187.201 34.344 185.931 34.344C184.681 34.344 183.701 34.8107 182.991 35.744C182.301 36.6587 181.955 37.928 181.955 39.552C181.955 41.176 182.301 42.4547 182.991 43.388C183.701 44.3027 184.681 44.76 185.931 44.76ZM200.887 47.336C199.393 47.336 198.199 46.8413 197.303 45.852C196.425 44.844 195.987 43.4533 195.987 41.68V32.104H198.955V40.924C198.955 42.268 199.188 43.2573 199.655 43.892C200.121 44.5267 200.831 44.844 201.783 44.844C202.865 44.844 203.705 44.4987 204.303 43.808C204.919 43.0987 205.227 42.1093 205.227 40.84V32.104H208.195V47H205.423L205.367 43.108L205.787 43.276C205.525 44.5827 204.975 45.5907 204.135 46.3C203.295 46.9907 202.212 47.336 200.887 47.336ZM217.86 47.336C216.46 47.336 215.274 47.1213 214.304 46.692C213.352 46.2627 212.614 45.6747 212.092 44.928C211.569 44.1627 211.27 43.2853 211.196 42.296L214.248 42.156C214.397 42.9773 214.752 43.6307 215.312 44.116C215.872 44.6013 216.721 44.844 217.86 44.844C218.793 44.844 219.53 44.6947 220.072 44.396C220.613 44.0973 220.884 43.6213 220.884 42.968C220.884 42.6133 220.79 42.3147 220.604 42.072C220.436 41.8107 220.1 41.596 219.596 41.428C219.092 41.2413 218.345 41.064 217.356 40.896C215.881 40.616 214.724 40.2893 213.884 39.916C213.044 39.5427 212.446 39.0667 212.092 38.488C211.737 37.9093 211.56 37.2093 211.56 36.388C211.56 35.0253 212.064 33.9147 213.072 33.056C214.098 32.1973 215.573 31.768 217.496 31.768C218.784 31.768 219.866 31.992 220.744 32.44C221.621 32.8693 222.302 33.4573 222.788 34.204C223.292 34.932 223.609 35.7533 223.74 36.668L220.688 36.836C220.594 36.3133 220.408 35.8653 220.128 35.492C219.866 35.1 219.512 34.8013 219.064 34.596C218.616 34.372 218.084 34.26 217.468 34.26C216.516 34.26 215.806 34.4467 215.34 34.82C214.873 35.1933 214.64 35.6787 214.64 36.276C214.64 36.724 214.742 37.088 214.948 37.368C215.172 37.648 215.526 37.8813 216.012 38.068C216.497 38.236 217.141 38.3853 217.944 38.516C219.493 38.7773 220.706 39.104 221.584 39.496C222.461 39.8693 223.077 40.336 223.432 40.896C223.786 41.456 223.964 42.1373 223.964 42.94C223.964 43.8733 223.702 44.6667 223.18 45.32C222.657 45.9733 221.938 46.4773 221.024 46.832C220.109 47.168 219.054 47.336 217.86 47.336ZM233.099 47.336C231.643 47.336 230.383 47.0187 229.319 46.384C228.274 45.7493 227.462 44.844 226.883 43.668C226.323 42.492 226.043 41.12 226.043 39.552C226.043 37.984 226.323 36.6213 226.883 35.464C227.462 34.288 228.274 33.3827 229.319 32.748C230.365 32.0947 231.597 31.768 233.015 31.768C234.359 31.768 235.545 32.0853 236.571 32.72C237.598 33.336 238.391 34.232 238.951 35.408C239.53 36.584 239.819 38.0027 239.819 39.664V40.42H229.123C229.198 41.876 229.581 42.968 230.271 43.696C230.981 44.424 231.933 44.788 233.127 44.788C234.005 44.788 234.733 44.5827 235.311 44.172C235.89 43.7613 236.291 43.2107 236.515 42.52L239.595 42.716C239.203 44.0973 238.429 45.2173 237.271 46.076C236.133 46.916 234.742 47.336 233.099 47.336ZM229.123 38.18H236.683C236.59 36.8547 236.207 35.8747 235.535 35.24C234.882 34.6053 234.042 34.288 233.015 34.288C231.951 34.288 231.074 34.624 230.383 35.296C229.711 35.9493 229.291 36.9107 229.123 38.18Z" fill="#737373"/>
<path d="M38.5 47.9062C37.8679 47.9062 37.3438 47.3821 37.3438 46.75V42.125C37.3438 41.4929 37.8679 40.9688 38.5 40.9688C39.1321 40.9688 39.6562 41.4929 39.6562 42.125V46.75C39.6562 47.3821 39.1321 47.9062 38.5 47.9062Z" fill="#6E6E6E"/>
<path d="M47.1356 53.7794H29.8689C27.0631 53.7794 24.5039 51.6211 24.0414 48.8615L21.991 36.5744C21.6518 34.6628 22.5923 32.2115 24.1185 30.9936L34.8023 22.4374C36.8681 20.7724 40.121 20.7878 42.2023 22.4528L52.886 30.9936C54.3968 32.2115 55.3218 34.6628 55.0135 36.5744L52.9631 48.8461C52.5006 51.5749 49.8798 53.7794 47.1356 53.7794ZM38.4868 23.5165C37.6698 23.5165 36.8527 23.7632 36.2514 24.2411L25.5677 32.8128C24.7043 33.5065 24.0877 35.1099 24.2727 36.2044L26.3231 48.4761C26.6006 50.0949 28.2193 51.4669 29.8689 51.4669H47.1356C48.7852 51.4669 50.4039 50.0949 50.6814 48.4607L52.7318 36.189C52.9014 35.1099 52.2848 33.4757 51.4368 32.7974L40.7531 24.2565C40.1364 23.7632 39.3039 23.5165 38.4868 23.5165Z" fill="#6E6E6E"/>
<path d="M332.667 39.0625H321.334C320.753 39.0625 320.271 38.5808 320.271 38C320.271 37.4192 320.753 36.9375 321.334 36.9375H332.667C333.248 36.9375 333.73 37.4192 333.73 38C333.73 38.5808 333.248 39.0625 332.667 39.0625Z" fill="#525252"/>
<path d="M327 44.7288C326.419 44.7288 325.938 44.2472 325.938 43.6663V32.333C325.938 31.7522 326.419 31.2705 327 31.2705C327.581 31.2705 328.062 31.7522 328.062 32.333V43.6663C328.062 44.2472 327.581 44.7288 327 44.7288Z" fill="#525252"/>
<path d="M331.251 53.2288H322.751C315.058 53.2288 311.771 49.9422 311.771 42.2497V33.7497C311.771 26.0572 315.058 22.7705 322.751 22.7705H331.251C338.943 22.7705 342.23 26.0572 342.23 33.7497V42.2497C342.23 49.9422 338.943 53.2288 331.251 53.2288ZM322.751 24.8955C316.22 24.8955 313.896 27.2188 313.896 33.7497V42.2497C313.896 48.7805 316.22 51.1038 322.751 51.1038H331.251C337.781 51.1038 340.105 48.7805 340.105 42.2497V33.7497C340.105 27.2188 337.781 24.8955 331.251 24.8955H322.751Z" fill="#525252"/>
</g>
<g clip-path="url(#clip1_698_5649)">
<rect y="198" width="363" height="75" rx="14" fill="url(#paint1_linear_698_5649)"/>
<g filter="url(#filter1_f_698_5649)">
<ellipse cx="223" cy="205.5" rx="72" ry="6.5" fill="white" fill-opacity="0.4"/>
</g>
<path d="M332.667 237.062H321.334C320.753 237.062 320.271 236.581 320.271 236C320.271 235.419 320.753 234.938 321.334 234.938H332.667C333.248 234.938 333.73 235.419 333.73 236C333.73 236.581 333.248 237.062 332.667 237.062Z" fill="#525252"/>
<path d="M327 242.729C326.419 242.729 325.938 242.247 325.938 241.666V230.333C325.938 229.752 326.419 229.271 327 229.271C327.581 229.271 328.062 229.752 328.062 230.333V241.666C328.062 242.247 327.581 242.729 327 242.729Z" fill="#525252"/>
<path d="M331.251 251.229H322.751C315.058 251.229 311.771 247.942 311.771 240.25V231.75C311.771 224.057 315.058 220.771 322.751 220.771H331.251C338.943 220.771 342.23 224.057 342.23 231.75V240.25C342.23 247.942 338.943 251.229 331.251 251.229ZM322.751 222.896C316.22 222.896 313.896 225.219 313.896 231.75V240.25C313.896 246.781 316.22 249.104 322.751 249.104H331.251C337.781 249.104 340.105 246.781 340.105 240.25V231.75C340.105 225.219 337.781 222.896 331.251 222.896H322.751Z" fill="#525252"/>
<path d="M75.408 245V225.12H79.552L85.46 241.444L91.368 225.12H95.512V245H92.488V230.44L87.14 244.972H83.78L78.432 230.44V245H75.408ZM103.909 245.336C102.359 245.336 101.118 244.981 100.185 244.272C99.2701 243.563 98.8127 242.564 98.8127 241.276C98.8127 239.988 99.1954 238.989 99.9607 238.28C100.745 237.552 101.949 237.029 103.573 236.712L108.697 235.732C108.697 234.575 108.426 233.716 107.885 233.156C107.343 232.577 106.541 232.288 105.477 232.288C104.525 232.288 103.778 232.503 103.237 232.932C102.695 233.343 102.322 233.959 102.117 234.78L99.0647 234.584C99.3447 233.091 100.035 231.915 101.137 231.056C102.257 230.197 103.703 229.768 105.477 229.768C107.493 229.768 109.023 230.309 110.069 231.392C111.133 232.456 111.665 233.959 111.665 235.9V241.696C111.665 242.051 111.721 242.303 111.833 242.452C111.963 242.583 112.169 242.648 112.449 242.648H112.981V245C112.887 245.019 112.738 245.037 112.533 245.056C112.327 245.075 112.113 245.084 111.889 245.084C111.254 245.084 110.703 244.981 110.237 244.776C109.789 244.571 109.453 244.235 109.229 243.768C109.005 243.283 108.893 242.639 108.893 241.836L109.201 241.976C109.051 242.629 108.725 243.208 108.221 243.712C107.735 244.216 107.11 244.617 106.345 244.916C105.598 245.196 104.786 245.336 103.909 245.336ZM104.385 242.984C105.281 242.984 106.046 242.816 106.681 242.48C107.315 242.125 107.81 241.64 108.165 241.024C108.519 240.408 108.697 239.708 108.697 238.924V237.972L104.329 238.812C103.433 238.98 102.798 239.251 102.425 239.624C102.07 239.979 101.893 240.436 101.893 240.996C101.893 241.631 102.107 242.125 102.537 242.48C102.985 242.816 103.601 242.984 104.385 242.984ZM115.487 245V230.104H118.203L118.315 234.052L118.063 233.968C118.268 232.624 118.679 231.644 119.295 231.028C119.929 230.412 120.779 230.104 121.843 230.104H123.271V232.764H121.843C121.096 232.764 120.471 232.885 119.967 233.128C119.463 233.371 119.08 233.744 118.819 234.248C118.576 234.752 118.455 235.405 118.455 236.208V245H115.487ZM125.713 245V230.104H128.681V245H125.713ZM125.657 227.948V224.98H128.737V227.948H125.657ZM133.123 245V230.104H135.839L135.951 234.08L135.587 233.884C135.755 232.913 136.073 232.129 136.539 231.532C137.006 230.935 137.575 230.496 138.247 230.216C138.919 229.917 139.647 229.768 140.431 229.768C141.551 229.768 142.475 230.02 143.203 230.524C143.95 231.009 144.51 231.681 144.883 232.54C145.275 233.38 145.471 234.341 145.471 235.424V245H142.503V236.32C142.503 235.443 142.41 234.705 142.223 234.108C142.037 233.511 141.729 233.053 141.299 232.736C140.87 232.419 140.31 232.26 139.619 232.26C138.574 232.26 137.725 232.605 137.071 233.296C136.418 233.987 136.091 234.995 136.091 236.32V245H133.123ZM155.47 245.336C154.014 245.336 152.754 245.019 151.69 244.384C150.645 243.749 149.833 242.844 149.254 241.668C148.694 240.492 148.414 239.12 148.414 237.552C148.414 235.984 148.694 234.621 149.254 233.464C149.833 232.288 150.645 231.383 151.69 230.748C152.736 230.095 153.968 229.768 155.386 229.768C156.73 229.768 157.916 230.085 158.942 230.72C159.969 231.336 160.762 232.232 161.322 233.408C161.901 234.584 162.19 236.003 162.19 237.664V238.42H151.494C151.569 239.876 151.952 240.968 152.642 241.696C153.352 242.424 154.304 242.788 155.498 242.788C156.376 242.788 157.104 242.583 157.682 242.172C158.261 241.761 158.662 241.211 158.886 240.52L161.966 240.716C161.574 242.097 160.8 243.217 159.642 244.076C158.504 244.916 157.113 245.336 155.47 245.336ZM151.494 236.18H159.054C158.961 234.855 158.578 233.875 157.906 233.24C157.253 232.605 156.413 232.288 155.386 232.288C154.322 232.288 153.445 232.624 152.754 233.296C152.082 233.949 151.662 234.911 151.494 236.18ZM172.588 245V225.12H180.008C182.285 225.12 184.058 225.671 185.328 226.772C186.597 227.855 187.232 229.367 187.232 231.308C187.232 232.596 186.942 233.716 186.364 234.668C185.785 235.601 184.954 236.32 183.872 236.824C182.808 237.309 181.52 237.552 180.008 237.552H175.612V245H172.588ZM175.612 234.808H179.924C181.286 234.808 182.322 234.519 183.032 233.94C183.741 233.343 184.096 232.465 184.096 231.308C184.096 230.169 183.741 229.32 183.032 228.76C182.322 228.181 181.286 227.892 179.924 227.892H175.612V234.808ZM193.93 245C192.959 245 192.175 244.748 191.578 244.244C190.981 243.74 190.682 242.937 190.682 241.836V225.12H193.65V241.556C193.65 241.892 193.734 242.144 193.902 242.312C194.089 242.48 194.35 242.564 194.686 242.564H195.862V245H193.93ZM204.525 245.336C203.106 245.336 201.865 245.019 200.801 244.384C199.737 243.749 198.916 242.844 198.337 241.668C197.758 240.492 197.469 239.12 197.469 237.552C197.469 235.965 197.758 234.593 198.337 233.436C198.916 232.279 199.737 231.383 200.801 230.748C201.865 230.095 203.106 229.768 204.525 229.768C205.944 229.768 207.185 230.095 208.249 230.748C209.313 231.383 210.134 232.279 210.713 233.436C211.292 234.593 211.581 235.965 211.581 237.552C211.581 239.12 211.292 240.492 210.713 241.668C210.134 242.844 209.313 243.749 208.249 244.384C207.185 245.019 205.944 245.336 204.525 245.336ZM204.525 242.76C205.794 242.76 206.774 242.303 207.465 241.388C208.156 240.455 208.501 239.176 208.501 237.552C208.501 235.928 208.156 234.659 207.465 233.744C206.774 232.811 205.794 232.344 204.525 232.344C203.274 232.344 202.294 232.811 201.585 233.744C200.894 234.659 200.549 235.928 200.549 237.552C200.549 239.176 200.894 240.455 201.585 241.388C202.294 242.303 203.274 242.76 204.525 242.76ZM219.746 245C218.327 245 217.282 244.673 216.61 244.02C215.938 243.367 215.602 242.349 215.602 240.968V226.604H218.57V240.744C218.57 241.435 218.719 241.911 219.018 242.172C219.316 242.433 219.774 242.564 220.39 242.564H222.518V245H219.746ZM213.334 232.54V230.104H222.518V232.54H213.334Z" fill="#737373"/>
<path d="M38.5 244.906C37.8679 244.906 37.3438 244.382 37.3438 243.75V239.125C37.3438 238.493 37.8679 237.969 38.5 237.969C39.1321 237.969 39.6562 238.493 39.6562 239.125V243.75C39.6562 244.382 39.1321 244.906 38.5 244.906Z" fill="#6E6E6E"/>
<path d="M47.1356 250.779H29.8689C27.0631 250.779 24.5039 248.621 24.0414 245.862L21.991 233.574C21.6518 231.663 22.5923 229.212 24.1185 227.994L34.8023 219.437C36.8681 217.772 40.121 217.788 42.2023 219.453L52.886 227.994C54.3968 229.212 55.3218 231.663 55.0135 233.574L52.9631 245.846C52.5006 248.575 49.8798 250.779 47.1356 250.779ZM38.4868 220.517C37.6698 220.517 36.8527 220.763 36.2514 221.241L25.5677 229.813C24.7043 230.507 24.0877 232.11 24.2727 233.204L26.3231 245.476C26.6006 247.095 28.2193 248.467 29.8689 248.467H47.1356C48.7852 248.467 50.4039 247.095 50.6814 245.461L52.7318 233.189C52.9014 232.11 52.2848 230.476 51.4368 229.797L40.7531 221.257C40.1364 220.763 39.3039 220.517 38.4868 220.517Z" fill="#6E6E6E"/>
</g>
<g clip-path="url(#clip2_698_5649)">
<rect x="50" y="99" width="363" height="75" rx="14" fill="url(#paint2_linear_698_5649)"/>
<g filter="url(#filter2_f_698_5649)">
<ellipse cx="362.5" cy="137" rx="50.5" ry="25" fill="#EA580C" fill-opacity="0.66"/>
</g>
<path d="M381.667 138.062H370.334C369.753 138.062 369.271 137.581 369.271 137C369.271 136.419 369.753 135.938 370.334 135.938H381.667C382.248 135.938 382.73 136.419 382.73 137C382.73 137.581 382.248 138.062 381.667 138.062Z" fill="#0284C7"/>
<path d="M376 143.729C375.419 143.729 374.938 143.247 374.938 142.666V131.333C374.938 130.752 375.419 130.271 376 130.271C376.581 130.271 377.062 130.752 377.062 131.333V142.666C377.062 143.247 376.581 143.729 376 143.729Z" fill="#0284C7"/>
<path d="M380.251 152.229H371.751C364.058 152.229 360.771 148.942 360.771 141.25V132.75C360.771 125.057 364.058 121.771 371.751 121.771H380.251C387.943 121.771 391.23 125.057 391.23 132.75V141.25C391.23 148.942 387.943 152.229 380.251 152.229ZM371.751 123.896C365.22 123.896 362.896 126.219 362.896 132.75V141.25C362.896 147.781 365.22 150.104 371.751 150.104H380.251C386.781 150.104 389.105 147.781 389.105 141.25V132.75C389.105 126.219 386.781 123.896 380.251 123.896H371.751Z" fill="#0284C7"/>
<path d="M125.408 147V127.12H132.828C135.105 127.12 136.879 127.671 138.148 128.772C139.417 129.855 140.052 131.367 140.052 133.308C140.052 134.596 139.763 135.716 139.184 136.668C138.605 137.601 137.775 138.32 136.692 138.824C135.628 139.309 134.34 139.552 132.828 139.552H128.432V147H125.408ZM128.432 136.808H132.744C134.107 136.808 135.143 136.519 135.852 135.94C136.561 135.343 136.916 134.465 136.916 133.308C136.916 132.169 136.561 131.32 135.852 130.76C135.143 130.181 134.107 129.892 132.744 129.892H128.432V136.808ZM151.294 147.448C149.409 147.448 147.794 147.009 146.45 146.132C145.106 145.236 144.08 144.013 143.37 142.464C142.661 140.896 142.306 139.104 142.306 137.088C142.306 135.091 142.661 133.308 143.37 131.74C144.098 130.172 145.144 128.94 146.506 128.044C147.869 127.129 149.502 126.672 151.406 126.672C153.03 126.672 154.402 126.961 155.522 127.54C156.661 128.119 157.557 128.912 158.21 129.92C158.882 130.928 159.349 132.076 159.61 133.364L156.446 133.532C156.222 132.319 155.718 131.339 154.934 130.592C154.15 129.827 152.974 129.444 151.406 129.444C150.025 129.444 148.896 129.789 148.018 130.48C147.141 131.171 146.488 132.095 146.058 133.252C145.648 134.409 145.442 135.688 145.442 137.088C145.442 138.544 145.648 139.841 146.058 140.98C146.488 142.119 147.141 143.024 148.018 143.696C148.914 144.349 150.053 144.676 151.434 144.676C152.517 144.676 153.45 144.443 154.234 143.976C155.018 143.509 155.625 142.875 156.054 142.072C156.502 141.269 156.745 140.383 156.782 139.412H151.462V136.864H159.666V147H157.594L157.398 142.52L157.79 142.856C157.585 143.752 157.165 144.545 156.53 145.236C155.896 145.927 155.121 146.468 154.206 146.86C153.31 147.252 152.34 147.448 151.294 147.448ZM163.443 147V127.12H171.367C172.786 127.12 174.008 127.363 175.035 127.848C176.062 128.333 176.855 129.024 177.415 129.92C177.975 130.816 178.255 131.88 178.255 133.112C178.255 134.008 178.05 134.811 177.639 135.52C177.247 136.229 176.715 136.799 176.043 137.228C175.39 137.639 174.69 137.872 173.943 137.928L173.803 137.676C175.054 137.676 176.024 137.965 176.715 138.544C177.406 139.104 177.807 139.991 177.919 141.204L178.451 147H175.399L174.923 141.596C174.867 140.793 174.596 140.205 174.111 139.832C173.626 139.44 172.832 139.244 171.731 139.244H166.467V147H163.443ZM166.467 136.472H171.423C172.562 136.472 173.458 136.192 174.111 135.632C174.783 135.053 175.119 134.241 175.119 133.196C175.119 132.132 174.783 131.32 174.111 130.76C173.439 130.181 172.459 129.892 171.171 129.892H166.467V136.472ZM189.283 147V127.12H192.307V136.696L190.851 135.632H202.947L201.491 136.696V127.12H204.515V147H201.491V137.312L202.947 138.376H190.851L192.307 137.312V147H189.283ZM214.877 147.336C213.458 147.336 212.217 147.019 211.153 146.384C210.089 145.749 209.267 144.844 208.689 143.668C208.11 142.492 207.821 141.12 207.821 139.552C207.821 137.965 208.11 136.593 208.689 135.436C209.267 134.279 210.089 133.383 211.153 132.748C212.217 132.095 213.458 131.768 214.877 131.768C216.295 131.768 217.537 132.095 218.601 132.748C219.665 133.383 220.486 134.279 221.065 135.436C221.643 136.593 221.933 137.965 221.933 139.552C221.933 141.12 221.643 142.492 221.065 143.668C220.486 144.844 219.665 145.749 218.601 146.384C217.537 147.019 216.295 147.336 214.877 147.336ZM214.877 144.76C216.146 144.76 217.126 144.303 217.817 143.388C218.507 142.455 218.853 141.176 218.853 139.552C218.853 137.928 218.507 136.659 217.817 135.744C217.126 134.811 216.146 134.344 214.877 134.344C213.626 134.344 212.646 134.811 211.937 135.744C211.246 136.659 210.901 137.928 210.901 139.552C210.901 141.176 211.246 142.455 211.937 143.388C212.646 144.303 213.626 144.76 214.877 144.76ZM229.832 147.336C228.339 147.336 227.144 146.841 226.248 145.852C225.371 144.844 224.932 143.453 224.932 141.68V132.104H227.9V140.924C227.9 142.268 228.133 143.257 228.6 143.892C229.067 144.527 229.776 144.844 230.728 144.844C231.811 144.844 232.651 144.499 233.248 143.808C233.864 143.099 234.172 142.109 234.172 140.84V132.104H237.14V147H234.368L234.312 143.108L234.732 143.276C234.471 144.583 233.92 145.591 233.08 146.3C232.24 146.991 231.157 147.336 229.832 147.336ZM246.805 147.336C245.405 147.336 244.22 147.121 243.249 146.692C242.297 146.263 241.56 145.675 241.037 144.928C240.514 144.163 240.216 143.285 240.141 142.296L243.193 142.156C243.342 142.977 243.697 143.631 244.257 144.116C244.817 144.601 245.666 144.844 246.805 144.844C247.738 144.844 248.476 144.695 249.017 144.396C249.558 144.097 249.829 143.621 249.829 142.968C249.829 142.613 249.736 142.315 249.549 142.072C249.381 141.811 249.045 141.596 248.541 141.428C248.037 141.241 247.29 141.064 246.301 140.896C244.826 140.616 243.669 140.289 242.829 139.916C241.989 139.543 241.392 139.067 241.037 138.488C240.682 137.909 240.505 137.209 240.505 136.388C240.505 135.025 241.009 133.915 242.017 133.056C243.044 132.197 244.518 131.768 246.441 131.768C247.729 131.768 248.812 131.992 249.689 132.44C250.566 132.869 251.248 133.457 251.733 134.204C252.237 134.932 252.554 135.753 252.685 136.668L249.633 136.836C249.54 136.313 249.353 135.865 249.073 135.492C248.812 135.1 248.457 134.801 248.009 134.596C247.561 134.372 247.029 134.26 246.413 134.26C245.461 134.26 244.752 134.447 244.285 134.82C243.818 135.193 243.585 135.679 243.585 136.276C243.585 136.724 243.688 137.088 243.893 137.368C244.117 137.648 244.472 137.881 244.957 138.068C245.442 138.236 246.086 138.385 246.889 138.516C248.438 138.777 249.652 139.104 250.529 139.496C251.406 139.869 252.022 140.336 252.377 140.896C252.732 141.456 252.909 142.137 252.909 142.94C252.909 143.873 252.648 144.667 252.125 145.32C251.602 145.973 250.884 146.477 249.969 146.832C249.054 147.168 248 147.336 246.805 147.336ZM262.044 147.336C260.589 147.336 259.329 147.019 258.265 146.384C257.219 145.749 256.407 144.844 255.829 143.668C255.269 142.492 254.989 141.12 254.989 139.552C254.989 137.984 255.269 136.621 255.829 135.464C256.407 134.288 257.219 133.383 258.265 132.748C259.31 132.095 260.542 131.768 261.961 131.768C263.305 131.768 264.49 132.085 265.517 132.72C266.543 133.336 267.337 134.232 267.897 135.408C268.475 136.584 268.765 138.003 268.765 139.664V140.42H258.069C258.143 141.876 258.526 142.968 259.217 143.696C259.926 144.424 260.878 144.788 262.073 144.788C262.95 144.788 263.678 144.583 264.257 144.172C264.835 143.761 265.237 143.211 265.461 142.52L268.541 142.716C268.149 144.097 267.374 145.217 266.217 146.076C265.078 146.916 263.687 147.336 262.044 147.336ZM258.069 138.18H265.629C265.535 136.855 265.153 135.875 264.481 135.24C263.827 134.605 262.987 134.288 261.961 134.288C260.897 134.288 260.019 134.624 259.329 135.296C258.657 135.949 258.237 136.911 258.069 138.18Z" fill="white"/>
<path d="M88.5 145.906C87.8679 145.906 87.3438 145.382 87.3438 144.75V140.125C87.3438 139.493 87.8679 138.969 88.5 138.969C89.1321 138.969 89.6562 139.493 89.6562 140.125V144.75C89.6562 145.382 89.1321 145.906 88.5 145.906Z" fill="#A3A3A3"/>
<path d="M97.1356 151.779H79.8689C77.0631 151.779 74.5039 149.621 74.0414 146.862L71.991 134.574C71.6518 132.663 72.5923 130.212 74.1185 128.994L84.8023 120.437C86.8681 118.772 90.121 118.788 92.2023 120.453L102.886 128.994C104.397 130.212 105.322 132.663 105.014 134.574L102.963 146.846C102.501 149.575 99.8798 151.779 97.1356 151.779ZM88.4868 121.517C87.6698 121.517 86.8527 121.763 86.2514 122.241L75.5677 130.813C74.7043 131.507 74.0877 133.11 74.2727 134.204L76.3231 146.476C76.6006 148.095 78.2193 149.467 79.8689 149.467H97.1356C98.7852 149.467 100.404 148.095 100.681 146.461L102.732 134.189C102.901 133.11 102.285 131.476 101.437 130.797L90.7531 122.257C90.1364 121.763 89.3039 121.517 88.4868 121.517Z" fill="#A3A3A3"/>
</g>
<g filter="url(#filter3_i_698_5649)">
<path d="M393.089 160.116C391.671 159.512 390.18 160.809 390.579 162.297L398.643 192.391C399.14 194.248 401.722 194.387 402.416 192.593L407.175 180.289C407.317 179.922 407.544 179.594 407.836 179.331C408.129 179.068 408.48 178.878 408.86 178.776L420.56 175.641C422.385 175.152 422.561 172.631 420.82 171.891L393.089 160.116Z" fill="#0369A1"/>
</g>
<defs>
<filter id="filter0_f_698_5649" x="97.1" y="-52.9" width="251.8" height="120.8" filterUnits="userSpaceOnUse" color-interpolation-filters="sRGB">
<feFlood flood-opacity="0" result="BackgroundImageFix"/>
<feBlend mode="normal" in="SourceGraphic" in2="BackgroundImageFix" result="shape"/>
<feGaussianBlur stdDeviation="26.95" result="effect1_foregroundBlur_698_5649"/>
</filter>
<filter id="filter1_f_698_5649" x="97.1" y="145.1" width="251.8" height="120.8" filterUnits="userSpaceOnUse" color-interpolation-filters="sRGB">
<feFlood flood-opacity="0" result="BackgroundImageFix"/>
<feBlend mode="normal" in="SourceGraphic" in2="BackgroundImageFix" result="shape"/>
<feGaussianBlur stdDeviation="26.95" result="effect1_foregroundBlur_698_5649"/>
</filter>
<filter id="filter2_f_698_5649" x="239.5" y="39.5" width="246" height="195" filterUnits="userSpaceOnUse" color-interpolation-filters="sRGB">
<feFlood flood-opacity="0" result="BackgroundImageFix"/>
<feBlend mode="normal" in="SourceGraphic" in2="BackgroundImageFix" result="shape"/>
<feGaussianBlur stdDeviation="36.25" result="effect1_foregroundBlur_698_5649"/>
</filter>
<filter id="filter3_i_698_5649" x="381" y="150" width="51.9902" height="52.9893" filterUnits="userSpaceOnUse" color-interpolation-filters="sRGB">
<feFlood flood-opacity="0" result="BackgroundImageFix"/>
<feBlend mode="normal" in="SourceGraphic" in2="BackgroundImageFix" result="shape"/>
<feColorMatrix in="SourceAlpha" type="matrix" values="0 0 0 0 0 0 0 0 0 0 0 0 0 0 0 0 0 0 127 0" result="hardAlpha"/>
<feOffset dx="3" dy="4"/>
<feGaussianBlur stdDeviation="4"/>
<feComposite in2="hardAlpha" operator="arithmetic" k2="-1" k3="1"/>
<feColorMatrix type="matrix" values="0 0 0 0 1 0 0 0 0 1 0 0 0 0 1 0 0 0 0.3 0"/>
<feBlend mode="normal" in2="shape" result="effect1_innerShadow_698_5649"/>
</filter>
<linearGradient id="paint0_linear_698_5649" x1="0" y1="37.5" x2="363" y2="37.5" gradientUnits="userSpaceOnUse">
<stop stop-color="#242424"/>
<stop offset="1" stop-color="#161616"/>
</linearGradient>
<linearGradient id="paint1_linear_698_5649" x1="0" y1="235.5" x2="363" y2="235.5" gradientUnits="userSpaceOnUse">
<stop stop-color="#242424"/>
<stop offset="1" stop-color="#161616"/>
</linearGradient>
<linearGradient id="paint2_linear_698_5649" x1="50" y1="136.5" x2="413" y2="136.5" gradientUnits="userSpaceOnUse">
<stop stop-color="#242424"/>
<stop offset="1" stop-color="#161616"/>
</linearGradient>
<clipPath id="clip0_698_5649">
<rect width="363" height="75" fill="white"/>
</clipPath>
<clipPath id="clip1_698_5649">
<rect width="363" height="75" fill="white" transform="translate(0 198)"/>
</clipPath>
<clipPath id="clip2_698_5649">
<rect x="50" y="99" width="363" height="75" rx="14" fill="white"/>
</clipPath>
</defs>
</svg>
