<svg width="58" height="58" viewBox="0 0 58 58" fill="none" xmlns="http://www.w3.org/2000/svg">
<rect width="58" height="58" rx="8" fill="#171717"/>
<path d="M16.1002 20.9308C15.581 21.2902 15.5208 22.0349 15.9755 22.4731L18.4839 24.8902C18.8247 25.2185 19.3489 25.263 19.7402 24.9969L27.3149 19.8448C28.3321 19.153 29.6685 19.1522 30.6864 19.8428L39.573 25.8718C40.1216 26.244 40.4502 26.8639 40.4502 27.5269V39.9361C40.4502 40.3006 40.1547 40.596 39.7903 40.596V40.596C39.4239 40.596 39.3305 41.1039 39.6729 41.2343L44.5997 43.1103C44.9859 43.2573 45.42 43.1434 45.5885 42.7661C45.7883 42.3187 46 41.6064 46 40.596V23.596L30.7031 13.1617C29.6772 12.4619 28.3261 12.4666 27.305 13.1735L16.1002 20.9308Z" fill="url(#paint0_linear_707_149)"/>
<path d="M12 25.8985C12 25.0239 13.0435 24.5707 13.6826 25.1677L17.0903 28.3508C17.4952 28.729 17.7251 29.2583 17.7251 29.8123V40.596H27.9381C28.1768 40.596 28.4135 40.6387 28.6371 40.7221L40.1905 45.0315C40.7125 45.2262 40.5729 46 40.0157 46H15C13.3431 46 12 44.6569 12 43V25.8985Z" fill="url(#paint1_linear_707_149)"/>
<defs>
<linearGradient id="paint0_linear_707_149" x1="29" y1="12" x2="29" y2="46" gradientUnits="userSpaceOnUse">
<stop stop-color="#0284C7"/>
<stop offset="1" stop-color="#38BDF8"/>
</linearGradient>
<linearGradient id="paint1_linear_707_149" x1="29" y1="12" x2="29" y2="46" gradientUnits="userSpaceOnUse">
<stop stop-color="#0284C7"/>
<stop offset="1" stop-color="#38BDF8"/>
</linearGradient>
</defs>
</svg>
