<svg width="123" height="102" viewBox="0 0 123 102" fill="none" xmlns="http://www.w3.org/2000/svg">
    <line x1="123" y1="51.5" x2="-4.37115e-08" y2="51.5" stroke="url(#paint0_linear_729_215)" />
    <line x1="81.5" y1="102" x2="81.5" y2="2.18557e-08" stroke="url(#paint1_linear_729_215)" />
    <g filter="url(#filter0_i_729_215)">
        <circle cx="82" cy="51" r="25" fill="#262626" />
    </g>
    <path opacity="0.4"
        d="M79 41C76.38 41 74.25 43.13 74.25 45.75C74.25 48.32 76.26 50.4 78.88 50.49C78.96 50.48 79.04 50.48 79.1 50.49C79.12 50.49 79.13 50.49 79.15 50.49C79.16 50.49 79.16 50.49 79.17 50.49C81.73 50.4 83.74 48.32 83.75 45.75C83.75 43.13 81.62 41 79 41Z"
        fill="url(#paint2_linear_729_215)" />
    <path
        d="M84.0809 53.1499C81.2909 51.2899 76.7409 51.2899 73.9309 53.1499C72.6609 53.9999 71.9609 55.1499 71.9609 56.3799C71.9609 57.6099 72.6609 58.7499 73.9209 59.5899C75.3209 60.5299 77.1609 60.9999 79.0009 60.9999C80.8409 60.9999 82.6809 60.5299 84.0809 59.5899C85.3409 58.7399 86.0409 57.5999 86.0409 56.3599C86.0309 55.1299 85.3409 53.9899 84.0809 53.1499Z"
        fill="url(#paint3_linear_729_215)" />
    <path opacity="0.4"
        d="M89.9894 46.3401C90.1494 48.2801 88.7694 49.9801 86.8594 50.2101C86.8494 50.2101 86.8494 50.2101 86.8394 50.2101H86.8094C86.7494 50.2101 86.6894 50.2101 86.6394 50.2301C85.6694 50.2801 84.7794 49.9701 84.1094 49.4001C85.1394 48.4801 85.7294 47.1001 85.6094 45.6001C85.5394 44.7901 85.2594 44.0501 84.8394 43.4201C85.2194 43.2301 85.6594 43.1101 86.1094 43.0701C88.0694 42.9001 89.8194 44.3601 89.9894 46.3401Z"
        fill="url(#paint4_linear_729_215)" />
    <path
        d="M91.9902 55.5904C91.9102 56.5604 91.2902 57.4004 90.2502 57.9704C89.2502 58.5204 87.9902 58.7804 86.7402 58.7504C87.4602 58.1004 87.8802 57.2904 87.9602 56.4304C88.0602 55.1904 87.4702 54.0004 86.2902 53.0504C85.6202 52.5204 84.8402 52.1004 83.9902 51.7904C86.2002 51.1504 88.9802 51.5804 90.6902 52.9604C91.6102 53.7004 92.0802 54.6304 91.9902 55.5904Z"
        fill="url(#paint5_linear_729_215)" />
    <defs>
        <filter id="filter0_i_729_215" x="57" y="26" width="50" height="50"
            filterUnits="userSpaceOnUse" color-interpolation-filters="sRGB">
            <feFlood flood-opacity="0" result="BackgroundImageFix" />
            <feBlend mode="normal" in="SourceGraphic" in2="BackgroundImageFix" result="shape" />
            <feColorMatrix in="SourceAlpha" type="matrix"
                values="0 0 0 0 0 0 0 0 0 0 0 0 0 0 0 0 0 0 127 0" result="hardAlpha" />
            <feMorphology radius="2" operator="erode" in="SourceAlpha"
                result="effect1_innerShadow_729_215" />
            <feOffset />
            <feGaussianBlur stdDeviation="6.5" />
            <feComposite in2="hardAlpha" operator="arithmetic" k2="-1" k3="1" />
            <feColorMatrix type="matrix" values="0 0 0 0 1 0 0 0 0 1 0 0 0 0 1 0 0 0 0.08 0" />
            <feBlend mode="normal" in2="shape" result="effect1_innerShadow_729_215" />
        </filter>
        <linearGradient id="paint0_linear_729_215" x1="123" y1="50.5" x2="4.37115e-08" y2="50.5"
            gradientUnits="userSpaceOnUse">
            <stop stop-color="#0369A1" stop-opacity="0.6" />
            <stop offset="1" stop-color="#0369A1" stop-opacity="0" />
        </linearGradient>
        <linearGradient id="paint1_linear_729_215" x1="82.5" y1="102" x2="82.5" y2="-2.18557e-08"
            gradientUnits="userSpaceOnUse">
            <stop stop-color="#0369A1" stop-opacity="0.4" />
            <stop offset="1" stop-color="#0369A1" stop-opacity="0.6" />
        </linearGradient>
        <linearGradient id="paint2_linear_729_215" x1="79" y1="41" x2="79" y2="50.49"
            gradientUnits="userSpaceOnUse">
            <stop stop-color="#A3A3A3" />
            <stop offset="1" stop-color="#737373" />
        </linearGradient>
        <linearGradient id="paint3_linear_729_215" x1="79.0009" y1="51.7549" x2="79.0009"
            y2="60.9999" gradientUnits="userSpaceOnUse">
            <stop stop-color="#A3A3A3" />
            <stop offset="1" stop-color="#737373" />
        </linearGradient>
        <linearGradient id="paint4_linear_729_215" x1="87.0557" y1="43.0566" x2="87.0557"
            y2="50.2353" gradientUnits="userSpaceOnUse">
            <stop stop-color="#A3A3A3" />
            <stop offset="1" stop-color="#737373" />
        </linearGradient>
        <linearGradient id="paint5_linear_729_215" x1="87.9957" y1="51.5" x2="87.9957" y2="58.7527"
            gradientUnits="userSpaceOnUse">
            <stop stop-color="#A3A3A3" />
            <stop offset="1" stop-color="#737373" />
        </linearGradient>
    </defs>
</svg>